<svg xmlns="http://www.w3.org/2000/svg" xmlns:xlink="http://www.w3.org/1999/xlink" width="544" height="412.31" viewBox="0 0 544 412.31"><defs><clipPath id="clip-path"><path d="M335.32,262c6.83-5.73,12.36-6.74,18.92-13,5.2-4.93,25.53-33.18,25.53-33.18s11.16-4.53,15.71-11.42c3.41-5.15,5.78-13.71,10.3-17.77,1-.88,10.05-3.43,10.05-3.43L423,196.35l13,9.89s7,11.36,11.63,15.47c1.68,1.5,3.59,1.87,5.36,3.47,3.91,3.52,20.87,30.42,29.77,40.09-8.74,8.27-22.92,5.8-33.1,6.84-7.13.73-14.4-.06-21.21,2.62-6.39,2.51-13.71,8-20.55,8.15-5.5.16-11.43-4.08-16.86-5.45C376.72,273.81,337.31,268.44,335.32,262Z" fill="#a7b2bd"/></clipPath></defs><g style="isolation:isolate"><g id="Hintergrund"><rect x="-4.67" y="-2.21" width="553.11" height="498.11" fill="#66b8d2"/></g><g id="Illu"><path d="M118.44,314.06c0,.16-.16-.4-.16-.46,1.23-.1,2.17.06,3.12-.81,1.49-1.38.5-1.61,1-3.07.63-1.89,1.58-2.2,2.94-3.62,1-1,1.24-3.05,3.18-1.4.75-1,2.15-.2,3.23,0,0-1.53.75-1.59,1.37-2.59.94-1.55,2.61-6.27,4.91-4.07a3.31,3.31,0,0,1-.07-.61,3.62,3.62,0,0,1,2.87-.08c.05-5.92.46-5,11.3-8.6,1.7-.57,1.82-.53,2.37-2.34.44-1.44-.09-2.8.82-4.16.71-1.07,2-1.14,2.51-2.26.71-1.7-.49-4.62.6-6.47,2.84-4.84,9.06-8.11,13.35-5.08,0,0,4.49.72,5.8,2.88,0,0,9.43-15.69,6.69-10,0,0,2.09-1.73,3,.51,0,0,3.44-7.47,10.72-6.39,0,0,11.22-5,16.05-.72a7.51,7.51,0,0,1,3.08,4.41s10.54-1.55,10.75,2.24c0,0,2.4-8.46,7.67-7.37,0,0,4.83-5.05,10.09-3.25,0,0,12.73-6.48,17.55,2.52,0,0,6.63,0,6.61,3.61,0,0,.38-1,3.91,1.65,0,0,11.94-3.5,16.53,6.68l5.13,4.32.94.32c-.84-1.72-3.47-9.47,5.5-9.38,0,0,.66-11.16,13.93-10.08,0,0,12.39-11.88,25.12,1.08a16.44,16.44,0,0,1,8.55,4,4.89,4.89,0,0,1,6.34.36s11.43-8.29,16.26-2.53c0,0,5.29,3.54,4.4,7.54,0,0,6.13,0,6.57,4.68,0,0,2.63-12.94,8.77-10.41,0,0-2.19-4.69,7.46-3.25,0,0,18.55-9.36,24.63,2.53,0,0,12.87-1.3,11.24,4.21,0,0,9.58-1,12.36,4.39,0,0,12.63-9,20.59-1.59,0,0,4.68-6.23,11.15-2.84,0,0,.77-7.41,5.59-6a37.16,37.16,0,0,1,5.16-5.37c4.07-1.77,13.32-1,12.94,7.2,2.07.18,4.18,0,6.24.13a24.9,24.9,0,0,1,.21,8.18c1.27.55,2.6.32,3.91.51,0,.61.24,1.27.17,1.94,2.79-1.4,5.51-.27,7.58,1.62,5.34,4.88,3.1,18.95,3.1,26.61v63.8C435.5,353,196.38,341,102.81,336.32c-2-.1.1-13.38.64-14.81,1.66-4.38,1.88-3,6-2.2a14.45,14.45,0,0,1-.11-2.45c1.06-.06,2.13,0,3.19-.05C112.35,313.74,116.4,313.26,118.44,314.06Z" fill="#f5fdff" opacity="0.2"/><path d="M20,305.2s104.51,1.91,106.43,0,42,7.79,42,7.79L33.27,323.88Z" fill="#3a7fc7"/><path d="M393.38,305.2c-4.94-4.15-13.06-5.22-19.1-6.78-7.76-2-15.93-4.22-23.53-6.78-7.92-2.66-18.28-3.87-25.13-8.94-7.57-5.61,5.57-12.36,10.5-14.31,6.15-2.43,13-1.7,19.52-1.7,8.12,0,16.13.06,23.88,2.72,9.34,3.2,20.77,7.83,25.53,17.12C411.53,299.15,409.72,305.16,393.38,305.2Z" fill="#76ab70"/><path d="M326.36,278.81a596.94,596.94,0,0,1-81.93,13.13c-46.12,4.17-125.69,13.8-142.93,14.38-22.92.76,23.45,4.6,171.68,12.72,1.89.1,102.39-18,102.39-18Z" fill="#76ab70"/><path d="M523.69,295.67c-5.49-12.83-7.52-8-9.64-11-9.19-12.72-3.49-12.91-34.65-25-5.72-2.22-10.72-4.31-16.52-1.52-13.08,6.28-27.37,15.63-42,17.09-9.59,1-19.63-.45-29,2.22-9.56,2.71-18.95,7.67-28.39,11-10.6,3.76-20.86,10.78-32.19,12.08-3.74.43-59.54-.53-75.39-.53-63,0-111.47,13.95-228.14,10.26,7.71,5.06,5.5,7.05,9.08,14.5,30.25,63.06,229.93,57.41,236.43,57.54C508.67,387.18,513.14,342.17,523.69,295.67Z" fill="#76ab70"/><path d="M444.37,326.76c-7.9-4.56-27.72-5.19-33.72-5.28-29.64-.47-8.27,10-21.17,13.21-3,.74-15.08-.41-18.24.07-2.88.44-7.44.61-9.79,2.53-2.89,2.36,6.37,4.9,2.14,6.1-11.93,3.39-26.67,4.32-39.16,4.43a72.34,72.34,0,0,1-25.21-4.19c-10.56-3.85-19.86-2.2-31.26-2.2-10.86,0-21.51-3-32.41-4.43-20.59-2.67-122.76,1.45-143.15-2.71-11.59-2.36-26.35-2.91-37.85,0-.5,5.45,6.86,11.1,10,15,9.86,12,29.59,21.33,43.32,25.1,17.73,4.85,119.57,2.45,137.79,2.45,29.52,0,59.83,2.57,89.3.4,6.61-.49,13.13-2.41,19.79-3,14.25-1.28,8.81-.89,46.65-12.34,10.88-3.29,18.7-8.81,27.18-16.21,4.27-3.74,9.56-9.71,14.94-11.77C443.59,332.6,443.92,331.1,444.37,326.76Z" fill="#dbd178"/><path d="M90.24,306s13.66.07,24.91-.39,10.11-.77,29.33,0,19.78,9,34.45,14.13,64.67,21.72,87,21.61-21.14,16.67-21.14,16.67Z" fill="#dbd178"/><path d="M188.09,322.89s-4.72,6.45,30.75,1,46-4.05,70.61-10.89,82.21-5.31,89.38,1.42.75,4.5-11.23,9.47-14.7,17.51-44.51,15.35c-49.31-3.56-34-11-47.35-11.6s-48.86,2-38.21,9.54,16.45,24.58-21.76,20.14S188.09,322.89,188.09,322.89Z" fill="#dbd178"/><path d="M335.32,262c6.83-5.73,12.36-6.74,18.92-13,5.2-4.93,25.53-33.18,25.53-33.18s11.16-4.53,15.71-11.42c3.41-5.15,5.78-13.71,10.3-17.77,1-.88,10.05-3.43,10.05-3.43L423,196.35l13,9.89s7,11.36,11.63,15.47c1.68,1.5,3.59,1.87,5.36,3.47,3.91,3.52,20.87,30.42,29.77,40.09-8.74,8.27-22.92,5.8-33.1,6.84-7.13.73-14.4-.06-21.21,2.62-6.39,2.51-13.71,8-20.55,8.15-5.5.16-11.43-4.08-16.86-5.45C376.72,273.81,337.31,268.44,335.32,262Z" fill="#a7b2bd"/><g clip-path="url(#clip-path)"><path d="M448.88,208c3.1,2,4.59,5.43,7.18,7.91-.81-.78-5.17-.7-6.49-1-2.14-.46-4.78-1.89-7.06-1.51-.25,1.7.46,3.87-.45,5.34-1.15-1-5.66-7.21-7.53-3.84-1,1.88,1.17,4.37.32,6.36-.69-.38-1.48-.29-2.26-.62-1.09,2.36,2.33,6.37,1.25,10.94-.78-.29-7.13-2.31-7.17-2.74a3.23,3.23,0,0,1-.67,2.82c-1.56-.84-2-2.51-3.55-3.28-.9,1.41-1.48,6.32-4.67,5.92-1.66-.21-2.9-4.3-3.27-5.38-1.13-3.36-3.33-7.71-2.53-11.19,0,0-.57.4-.6.42-1.64-1.9-2.88.06-3,1.61s1,3,1.27,4.62c.33,1.82.74,8.6-1.54,9-.64-3.92-5.63-6.92-5.09-10.86.29-2.11,1.76-3.29,1.89-5.58.1-1.72.69-7.43-.67-8.33-3.52,2.23-4.53,5.88-6,9.11-1.64,3.73-3.63,4.46-7.47,6.2-3.45,1.56-5.34,5.14-9.37,5.9,2.66-1.28.38-6,4.17-6.59,1.53-.25,1.4-5.14,1.39-6.06-2-.33-3.05,1.44-4.71,2.1a3.16,3.16,0,0,0,.69-2.55c0-.06-4.91,2.72-5.34,2.93-2.37,1.18-4.59,2.09-6.44.39-4.79-4.36,4.76-6.42,7.86-8.2,12.13-6.95,21.9-37.67,38.87-28.56,3,1.61,3.5,8.06,5.55,10.22C432.68,203.19,441.5,203.22,448.88,208Z" fill="#fff"/><path d="M432.52,273.44c.06-1.67-.78-3.53-1.2-5.09-.84-3.07-1.14-6.28-1.76-9.42-1.2-6-3.88-5.6-7.4-9.6s-1.52-16.88-2.48-20.39c-.59-2.13-1.95-4.15-2.51-6.19-1.1-4-1.27-8.36-2.91-12.1-1.85-4.22-1.86-9.84-1.86-14.62,0-2.08.47-2.4,1.11-4.14.77-2.12.28-8.63,2.32-8.63L423,196.35l13,9.89,8.24,11.94c5.43,8.55,4.17.06,12.45,11.53,2.39,3.3,5,6.45,7.26,9.85,14.87,22.07,18.21,22.32,12,27-10.84,8.16-25.55,4.08-37.29,6.07A31.94,31.94,0,0,1,432.52,273.44Z" fill="#a7b2bd" opacity="0.3" style="mix-blend-mode:multiply"/></g><path d="M429,298.43c-.77.69-2.9,3.74-2,4.77,2.37,2.73,10.75,5,13.92,5.76,8.77,2.13,22.68,13.61,7,16.54-6.35,1.18-11,1.87-17.48,2.75-4.51.62-18.55-2.2-22,1.22,1.31,1.66,4.72,4.37,3.83,6.83s-6,1.25-9.58,2.12c-2.71.65-14.67,6.16-17.3,7-28.44,9.22-33.48,12-37,16.41-3.08,3.87-8.37,3.93-12.77,5.08-5.49,1.43-9.19-4.84-18.14-7.41-2.1-.6-6.54-1-8.53-1.83,2.74-.81,8.28-.43,11.21-1,3.82-.74,34.7-6.11,38.77-7.06,27.75-6.5,38.41-15,46.31-15.64,5.4-.43-7.53-7.23.94-9.35,5.2-1.3,38.17-1.71,40.2-2.44,7.51-2.73-6-9.55-7.56-10.1-5.64-2-19.93-4.48-19-7.24,0,0-1.51-.55,2.41-3.6s17.4-11,6.83-12.83-9.22-4.7-10.57-8.79-1.54-8.79-6.66-12.42-7-5.83-5.63-8.38c0,0-.82,2.09,2.42,4.24s1.42,1.42,6.77,5.8c2.47,2,3.84,7.58,4.75,9.93s1.89,4.56,6.36,6,10.91,3.29,9.55,7.17S430.8,296.78,429,298.43Z" fill="#3a7fc7"/><path d="M377.14,268.29c-2.09,0-1.9-1.08-2.5-3.16.39-.34.32-.71.55-1,.37-.53.58-.49,1-.87s1.81-2.3,1.82-.74a1.68,1.68,0,0,1,1.24-.66c.17-.66.72-1.12,1.18-.6a1.48,1.48,0,0,1,1.92.46c.4-1.07,1.06-.38,1.59-.25.73.18,1.83.26,1.81,1.39.94-.12,2.21-.67,2,1.09,1.19-.09,1.86.64,1.51,2,.64-.26,2.4-1.2,2.17.4.56-.45,1.11-.35,1.26.44.91,0,.71,1.43.3,2.09.56,0,1.08.35.85,1.08a1.57,1.57,0,0,1,1.48,2.39c1.14.72,2.09.59,2.72,2.26.08.21.23,1.31.26,1.48.14.72.7,1.31,0,2s-.8-.08-1.29-.06c-.34,0-.66.33-1,.32a18.67,18.67,0,0,0-2.7,0,13.33,13.33,0,0,1-1.66-.76c-1.05-.49-3.67-1.21-4-2.54-1,.22-3.42-1.48-3.2-2.55-1.62,0-2.62-1.23-4.07-1.67a13.67,13.67,0,0,1-1.95-.31c-.1-.05-1.27-1.25-1.28-1.15C377.26,269.07,377.07,268.64,377.14,268.29Z" fill="#4b865c"/><path d="M395.2,278.65c-6.13-9.33-16-8.42-22.9-16.6-6.13-7.31-17.84-18.28-21.87-18.28s-11.83,12.07-18.33,17.08c-16.87,13-21.72,18.75-31.17,25.38,2.3,2.33,6.18,2.8,9,4.06,7.18,3.25,17.41,7.81,25.05,6.38,11.61-2.17,32.72.27,28.74-6.77,3.19-.39,3.67.08,6.74.35,2.83.25,4.63-1.16,7.19-2.2,10.09-4.08,14.37-1.05,18.14-3C396.2,282.18,392.22,280.45,395.2,278.65Z" fill="#99c280"/><path d="M334,299.37c1.1.4,1.19.54,1.51-.92.91-.15.71-.95.51-1.7-.08-.3-.22-.42-.29-.74,0-.13,0-.33,0-.45-.16-.44.05-.8-.51-.8.13-.64-.24-1.16-.15-1.81-.17,0-.49-.2-.67-.19,0-.68.06-1.26-.6-1.49.5.18.4-1,.32-1.18a1.47,1.47,0,0,0-1.17-.79,2,2,0,0,0,.14-1.68c-.21-.5-.87-1.16-1-.24-.33-.33-.71-.48-1-.05a7.13,7.13,0,0,0-1.14-1.34c-.32-.21-1.64-.38-1.77.28.36-1.76-1.79-.79-1.84-.18.05-.56-.36-.73-.77-.74-.71,0-.68.42-1.06,1a.7.7,0,0,0-.8-.32c.05.69-.54,1-.48,1.85,0-.4-.57-1-.76-1.28s-.37-1.22-.73-.5c-.66-.35-1,0-1.7.07s-1.47-.76-2,.15c.06-.71-.23-1.39-.83-.78.46-.47-.94-.81-1.13-.76-.73.22-.89.78-1,1.63a1.23,1.23,0,0,0-.9.26c-.4-.63-1.47-.67-2.08-1s-.9-1.05-1.53-1.47l0,0c-.5,0-1.25-.5-1.6-.52-.81,0-1.38.55-2.31.31s-1.14-1.28-2.12-1.42c-.59-.08-2,.62-1.91,1.47-.1-1.05-1.15.38-1.19.43-.34.44-1,1.23-.48,1.85a2.39,2.39,0,0,0-.58,1.5c0,.41.33.89.33,1.08,0,.42-.26.63-.21,1a5.06,5.06,0,0,0,.45,1c1.08,1.94,1.65.7,2.73,1.39.27.18.5.63.81.8s1.06.12,1.5.3,1,.44,1.51.66.9.82,1.44,1.05a5,5,0,0,0,1.5,0,4.3,4.3,0,0,1,0-.46,3.92,3.92,0,0,0,1.34.36,4.63,4.63,0,0,0,1.22,1.52c.33.33.53.86,1,1.05.11,0,.63.11.67.13-.14-.09.67.44.47.39.4.1.54.48.92-.2.52.63.82.25,1.41.39s.82.58,1.28.52c0,0,0,.26.06.27.53.28.84-.23,1.36-.16a4.6,4.6,0,0,1,.9.47,3.48,3.48,0,0,1,1,.29c.52,0,.68-.27,1.16-.59.23.46.46.16.79.25.11,0,.25-.31.42-.26s.14.44.3.5c.32.12.66.31,1,.42s.78.61.92.65c.55.18,1-.16,1.51,0s.48.58,1,.57.88-.58,1.46-.57c.74,0,2,.87,1.77-.78C333.09,300.28,334,300.38,334,299.37Z" fill="#4b865c"/><path d="M367.32,290.12c-1.46-.49-1-2.56-1.43-4.14-.64-2.18-1.59-4.49-2.28-6.69a66.67,66.67,0,0,0-2.7-7.53c-1-2.12-2.65-3.19-3.87-5-2-3-1.07-6.9-2.32-10.49-1.46-4.2-3.93-8.07-5-12.28,2.66-1.05,11.6,6.64,15.08,10.14,4.14,4.16,7.81,8.67,12.46,12.3,2.18,1.71,10.59,4.71,15.44,8.74,1,.8,2.22,1.55,2.18,3,0,.89-.57.35-.66,1.2-.11,1.14.54,1.52.75,2.4.3,1.29.8,2.76,0,3.57s-4.68,0-6,0c-3.24,0-7.32,1.49-8.8,2C376.48,288.56,372.14,291.74,367.32,290.12Z" fill="#8fb577"/><path d="M385.62,287.28c-.53-.43-1.42-.18-2-.82s-1-2.84-.53-3.42a5.14,5.14,0,0,1-.19-4.48c-.05-.08-.31-.16-.32-.2-.19-.82-1.39-4.71.75-4.49a5.42,5.42,0,0,0,0,.57c.34-1.93,4.5-2.35,4.09-.44.34-1.89,2.19-1.11,2.94-.93a5.33,5.33,0,0,1,1.42.34s1,1.45,1.13.92c0,.24.09.61,0,.86.25-.07.59.1.84,0-.21,1.5.13,1.43.88,2.24.27.28.21.79.56,1s.62-.16.79,0a2.45,2.45,0,0,1,1.09,1.61,11.12,11.12,0,0,1-.32,1.38,3,3,0,0,1-.26-.81,3.93,3.93,0,0,1,.25,1.84.37.37,0,0,1-.42-.09c0,.89.22,1.77.16,2.66-.29-.12-.3,0-.57-.23.12,1.12-.85,1.32-1.27.42a2.13,2.13,0,0,1-1.56,1.61c-.62,0-.91-1-1.69-.26-.13-.08-.2-.21-.34-.28-.2,1-3.28,2.16-3.53,1-.06-.29-.88,1-.87,1C385.87,288.56,386.21,287.75,385.62,287.28Z" fill="#4b865c"/><path d="M364.23,291.94c-.21-2.85-3-8.22-4.39-10.37-1.7-2.54-3.13-5.21-4.74-7.76-1.17,1.53-4.79,10.22-6,12.36a75,75,0,0,0-4.17,9.05c2.68,1.17,6.83,0,9.68-.29C357.33,294.61,361.71,296.52,364.23,291.94Z" fill="#8fb577"/><path d="M358.21,280.05c1.88,1,3.22,3.08,5,4.24,1.23.8,1.88.34,2.5-1.3.67.65.95,2.53,1.19,3.5s.5,2.09.68,3.09c-.82.63-2.33.3-3.26.16a3.15,3.15,0,0,1-2.6-1.91C360.6,285.73,358.57,283.36,358.21,280.05Z" fill="#8fb577"/><path d="M486.86,271.11c-.88-4-2-3.48-4.83-3.74-1.74-.17-4.54-2.19-6.6-1.56a12.68,12.68,0,0,0-1.16.67c-.08,0-1.16.53-1.58.69-.72.27-1.13-.12-1.7.67-.31.44.1,1-.1,1.45-.74,1.58-3.48,1.13-3.62,2.93.13-1.66-2.25-.81-2.24.63-1.52-.18-2.53,1-3.78,1.59-.06-1.4-2.23-1.43-2.95-.37-.22-1.27-1.25-.62-1.8-.17-.33.27.1,1.1-.21,1.48s-1.38.47-1.93.84c.38,2-4,1.8.61,2.88,1.89.44,3.28.21,5.09.65s1.63.14,3.23-.1a8.28,8.28,0,0,1,2.32.14c.57,0,.86-.57,1.42-.55.31,0,.56.68.83.68,1.38,0,2.19-.75,3.45.42,0-.24.29-1,.27-1.33,1.23.28,5.05,1.43,5.44-.21,1.25-.39,4.25.08,4.22-2,1.23-.18,3.18.28,2.81-1.74a15.81,15.81,0,0,1,2.75.17,10.67,10.67,0,0,0,0-2C487.47,273.11,488,272.68,486.86,271.11Z" fill="#4b865c"/><path d="M27.62,310.36l69.78-.12s59.7-4.78,63.11,6.48,32.43,12.89,56.64,19.41,21,13.85,43,13.62,1,6.88-20.81,8.24S65.24,340.22,65.24,340.22L26.93,311.35Z" fill="#3a7fc7"/><path d="M342.09,365.12c4.89-1.77,3.81-4.73-.86-5.63-6.32-1.21-13-.77-19.46-.77-6,0-11.66-.92-17.6-1.59-3.37-.38-7.36,0-10.63-1.14-2.9-1-2.24-1.28-4.54-3.39-6.25-5.72-14.77-2.52-48.64-2.53a86.28,86.28,0,0,1-26.4-3.93C210.27,345.07,108.31,342,93.29,342c-27.37,0-31.09-8.38-31.31-5.92s4.63,14.65,8.1,19.24c4.39,5.82,11.32,10.54,17.62,14.14,16.57,9.48,115.61,6.67,133.83,8,45.46,3.33,61.23,2.3,71.34,2.3C303.3,379.78,333.74,369.94,342.09,365.12Z" fill="#3a7fc7"/><path d="M523.21,366.75c-174.18,0-159-1.11-173.42,1-7.1,1-14.43,2.52-21.65,1.88-12.1-1.08-22.92-3-35-2.28-12.61.74-24.72,3.12-37.71,1.28-11.44-1.62-23-.39-34.56-.39-4.76,0-45-1.57-53.11-1.11-12.38.69-60-1.2-60-1.2,0,5.52,0,20.85,0,26.37H523.71C523.2,364.78,524.39,366.75,523.21,366.75Z" fill="#306aa6"/><path d="M523.36,295.61c-5-4.2-16.47,9.45-20.21,11.22-6,2.87-13.18,4.27-19.42,6.87s-11.67,5.67-18.29,7.39c-10.24,2.68-21.62,5.45-31.42,10.07-7.87,3.71-12.59,10.8-19.85,15.59-21.86,14.42-30.6,9-51.87,15.53-23.6,7.27-26.77,2.11-37.41,6.47-9.89,4.06-18.61,9.35-29.23,11-8.67,1.36-17.2,4.87-22.48,12.2,3.18.82-15,.35,250.54.35-.15,0,2-94.57,0-96.64l-.08-.18C523.55,295.5,523.4,295.64,523.36,295.61Z" fill="#8e5644"/><path d="M431.75,333.59c-1.12,5.76-7.12,28.2-32.88,30.85" fill="none" stroke="#3a7fc7" stroke-linecap="round" stroke-miterlimit="10" stroke-width="2"/><path d="M451.26,324.9s-1.51,18.8-2.57,21.41c-4.32,10.72-14.48,12.41-23.5,17.43" fill="none" stroke="#3a7fc7" stroke-linecap="round" stroke-miterlimit="10" stroke-width="2"/><path d="M475.16,319c-1,7.18-6.88,37.69-36,44.85" fill="none" stroke="#3a7fc7" stroke-linecap="round" stroke-miterlimit="10" stroke-width="2"/><path d="M507.2,305.2c-3.38,6.9-12.54,25.61-15.08,30.59s-16.21,26.82-44,27.95" fill="none" stroke="#3a7fc7" stroke-linecap="round" stroke-miterlimit="10" stroke-width="2"/><path d="M89.74,353.77c-11.58-6.9-16.56-10.84-24.5-15,0,5.47,6.24,26.8,7.64,27.84l34.9,25.69s2.18-26.27,0-26.37C105.08,365.82,97.67,358.5,89.74,353.77Z" fill="#295b8f"/><path d="M524.08,368.52c-15.28.75-27.79-1.94-41.32.08-26.33,3.92-29.07.93-42.35,1.52-6.22.28-14.6.49-21.14.51-12.51.05,3.34-.68-58.52-.68-6.26,0-12.26-.95-18.5-1-7.37-.09-16.8-.51-23.52,2.52-7.48,3.37-14.89,7-23.07,8.31-8.67,1.36-17.2,4.87-22.48,12.2,3.18.82,250.54.35,250.54.35Z" fill="#784839"/><path d="M323.09,368.21c8.31-.72,16.9,1.15,31.22.1,12.79-.94,36.06-3.1,46.24-4,10.5-.95,45.89-.23,49.46-.54" fill="none" stroke="#3a7fc7" stroke-linecap="round" stroke-miterlimit="10" stroke-width="2"/><path d="M229.65,142.28a1.25,1.25,0,0,0-.1.27,34.25,34.25,0,0,1-7.43,1.78l-1.58.25a10.62,10.62,0,0,1-1.53.88,18,18,0,0,1-9.64,1.66c-1.43-.15-3.08-.7-3.46-2.09-1.69,2.62-5.57,2.47-8.56,1.55a31,31,0,0,1-8.68-4.26,5,5,0,0,1-3.07,1.55l-6.48,1.5a7.21,7.21,0,0,1-3,.26,2.44,2.44,0,0,1-2-2,8.74,8.74,0,0,1-13.18,3.16c-1.21-.92-2.28-2.22-3.79-2.47-2.49-.42-5,2.22-7.29,1.25a6.13,6.13,0,0,0-1.47-.64c-1.36-.16-2.1,1.55-3.27,2.26s-3,.25-4.18-.61a26.17,26.17,0,0,0-3.6-2.64c-2.09-1-4.53-.5-6.83-.45a1.51,1.51,0,0,1-1.18-.33c-.29-.3-.14-1,.28-.94l-1.09-.48c.24-1.45,1.8-2.31,3.25-2.52s2.95,0,4.39-.25,2.9-1.4,2.86-2.87l1.67-.18c-.08-1.19,1.59-1.52,2.77-1.42l6.33.55c1.09-1.13,2.87-1.1,4.43-1.25a5.23,5.23,0,0,0,2.83-1.06,16.8,16.8,0,0,1-3.4,0,22.08,22.08,0,0,1-4-.78l8.22-.89c0-.52-.14-1-.14-1.54a3.65,3.65,0,0,1,3.08-3.23,10.75,10.75,0,0,1,4.76.48,4.7,4.7,0,0,1-.32-2.5A1.64,1.64,0,0,1,167,123c-1-1.4.43-3.47,2.11-3.73s3.33.68,4.66,1.75c.47-.88,0-1.94-.12-2.92s.37-2.31,1.36-2.16a6,6,0,0,1,.7-7.17,9.2,9.2,0,0,1,7-2.77,20.72,20.72,0,0,1,7.5,1.84c3,1.24,6.33,3.3,6.67,6.52a4.64,4.64,0,0,1,5.72,6c1.52,1.27,4.09-.66,5.73.45s.59,3.71,1.4,5.48a30.85,30.85,0,0,1,4.89.52,6.68,6.68,0,0,1,3.27,1.33,3.68,3.68,0,0,1-2.22,6.42l1.4,1.05a2.4,2.4,0,0,1,3.39-.54,5.32,5.32,0,0,1,1.91,3.26,6.33,6.33,0,0,1-.11,4.19c-.05.1-.1.21-.16.31A38.92,38.92,0,0,0,229.65,142.28Zm-71.86-11.06-.74.15a3.59,3.59,0,0,1,.73-.05S157.79,131.25,157.79,131.22Z" fill="#f5fdff"/><path d="M323.93,127.4a1.31,1.31,0,0,0-.08.21,28,28,0,0,1-6,1.42l-1.26.2a7.82,7.82,0,0,1-1.23.7,14.9,14.9,0,0,1-7.7,1.34c-1.14-.11-2.46-.52-2.75-1.58-1.37,2-4.47,1.94-6.84,1.25a24.37,24.37,0,0,1-6.91-3.22,4.07,4.07,0,0,1-2.46,1.21l-5.19,1.21a6,6,0,0,1-2.41.22,1.88,1.88,0,0,1-1.61-1.51A7.17,7.17,0,0,1,269,131.38c-1-.71-1.81-1.69-3-1.88-1.67-.26-3.42.94-5.06,1.17a26.68,26.68,0,0,1-6,.11c-1.24-.12-6.1-1.16-6.07-2.6s3.1-1.65,3.94-2.5c1.7-1.74,2.73-3.17,5.33-3.32,2-.12,3.56-.74,5.58-1a4.31,4.31,0,0,0,2.27-.83,13.76,13.76,0,0,1-2.72.06,18.31,18.31,0,0,1-3.21-.58l6.57-.75c0-.39-.11-.78-.11-1.18a2.94,2.94,0,0,1,2.49-2.51,8.73,8.73,0,0,1,3.79.34,3.46,3.46,0,0,1-.23-1.92,1.33,1.33,0,0,1,1.49-1c-.77-1.07.36-2.68,1.71-2.89a5.08,5.08,0,0,1,3.71,1.32c.38-.68,0-1.49-.08-2.25s.31-1.78,1.1-1.68a4.5,4.5,0,0,1,.61-5.53,7.63,7.63,0,0,1,5.61-2.18,16.93,16.93,0,0,1,6,1.37c2.41.93,5,2.49,5.28,5a3.87,3.87,0,0,1,3.63.78,3.54,3.54,0,0,1,.89,3.83c1.22,1,3.28-.54,4.58.3s.45,2.86,1.08,4.21a27,27,0,0,1,3.91.37,5.47,5.47,0,0,1,2.6,1,2.81,2.81,0,0,1,.79,3,3.07,3.07,0,0,1-2.61,1.93l1.12.79a2,2,0,0,1,2.7-.44,4,4,0,0,1,1.51,2.5,4.71,4.71,0,0,1-.12,3.23c0,.08-.08.16-.13.24A31.44,31.44,0,0,0,323.93,127.4Zm-57.31-8-.59.12a2.94,2.94,0,0,1,.59-.05Z" fill="#266e99"/><line x1="348.98" y1="178.91" x2="353.99" y2="192.84" fill="none" stroke="#266e99" stroke-miterlimit="10" stroke-width="0.88"/><line x1="336.27" y1="143.62" x2="346.68" y2="172.55" fill="none" stroke="#266e99" stroke-miterlimit="10" stroke-width="0.88"/><line x1="348.97" y1="189.03" x2="351.9" y2="197.17" fill="none" stroke="#266e99" stroke-miterlimit="10" stroke-width="0.88"/><line x1="340.79" y1="166.33" x2="347.37" y2="184.6" fill="none" stroke="#266e99" stroke-miterlimit="10" stroke-width="0.88"/><line x1="334.17" y1="147.95" x2="339.07" y2="161.55" fill="none" stroke="#266e99" stroke-miterlimit="10" stroke-width="0.88"/><line x1="341.25" y1="178.95" x2="346.26" y2="192.87" fill="none" stroke="#266e99" stroke-miterlimit="10" stroke-width="0.88"/><line x1="328.54" y1="143.66" x2="338.96" y2="172.58" fill="none" stroke="#266e99" stroke-miterlimit="10" stroke-width="0.88"/><line x1="341.24" y1="189.06" x2="344.17" y2="197.2" fill="none" stroke="#266e99" stroke-miterlimit="10" stroke-width="0.88"/><line x1="333.06" y1="166.36" x2="339.64" y2="184.64" fill="none" stroke="#266e99" stroke-miterlimit="10" stroke-width="0.88"/><line x1="326.45" y1="147.99" x2="331.34" y2="161.58" fill="none" stroke="#266e99" stroke-miterlimit="10" stroke-width="0.88"/><line x1="333.52" y1="178.98" x2="338.54" y2="192.9" fill="none" stroke="#266e99" stroke-miterlimit="10" stroke-width="0.88"/><line x1="320.81" y1="143.69" x2="331.23" y2="172.61" fill="none" stroke="#266e99" stroke-miterlimit="10" stroke-width="0.88"/><line x1="333.51" y1="189.1" x2="336.44" y2="197.24" fill="none" stroke="#266e99" stroke-miterlimit="10" stroke-width="0.88"/><line x1="325.34" y1="166.39" x2="331.92" y2="184.67" fill="none" stroke="#266e99" stroke-miterlimit="10" stroke-width="0.88"/><line x1="318.72" y1="148.02" x2="323.61" y2="161.61" fill="none" stroke="#266e99" stroke-miterlimit="10" stroke-width="0.88"/><line x1="325.8" y1="179.01" x2="330.81" y2="192.94" fill="none" stroke="#266e99" stroke-miterlimit="10" stroke-width="0.88"/><line x1="313.09" y1="143.72" x2="323.51" y2="172.65" fill="none" stroke="#266e99" stroke-miterlimit="10" stroke-width="0.88"/><line x1="325.79" y1="189.13" x2="328.72" y2="197.27" fill="none" stroke="#266e99" stroke-miterlimit="10" stroke-width="0.88"/><line x1="317.61" y1="166.43" x2="324.19" y2="184.7" fill="none" stroke="#266e99" stroke-miterlimit="10" stroke-width="0.88"/><line x1="310.99" y1="148.06" x2="315.89" y2="161.65" fill="none" stroke="#266e99" stroke-miterlimit="10" stroke-width="0.88"/><line x1="318.07" y1="179.05" x2="323.09" y2="192.97" fill="none" stroke="#266e99" stroke-miterlimit="10" stroke-width="0.88"/><line x1="305.36" y1="143.76" x2="315.78" y2="172.68" fill="none" stroke="#266e99" stroke-miterlimit="10" stroke-width="0.88"/><line x1="318.06" y1="189.16" x2="320.99" y2="197.3" fill="none" stroke="#266e99" stroke-miterlimit="10" stroke-width="0.88"/><line x1="309.88" y1="166.46" x2="316.47" y2="184.74" fill="none" stroke="#266e99" stroke-miterlimit="10" stroke-width="0.88"/><line x1="303.27" y1="148.09" x2="308.16" y2="161.68" fill="none" stroke="#266e99" stroke-miterlimit="10" stroke-width="0.88"/><line x1="310.35" y1="179.08" x2="315.36" y2="193" fill="none" stroke="#266e99" stroke-miterlimit="10" stroke-width="0.88"/><line x1="297.64" y1="143.79" x2="308.05" y2="172.71" fill="none" stroke="#266e99" stroke-miterlimit="10" stroke-width="0.88"/><line x1="310.33" y1="189.2" x2="313.27" y2="197.34" fill="none" stroke="#266e99" stroke-miterlimit="10" stroke-width="0.88"/><line x1="302.16" y1="166.5" x2="308.74" y2="184.77" fill="none" stroke="#266e99" stroke-miterlimit="10" stroke-width="0.88"/><line x1="295.54" y1="148.12" x2="300.44" y2="161.71" fill="none" stroke="#266e99" stroke-miterlimit="10" stroke-width="0.88"/><line x1="302.62" y1="179.11" x2="307.63" y2="193.04" fill="none" stroke="#266e99" stroke-miterlimit="10" stroke-width="0.88"/><line x1="289.91" y1="143.82" x2="300.33" y2="172.75" fill="none" stroke="#266e99" stroke-miterlimit="10" stroke-width="0.88"/><line x1="302.61" y1="189.23" x2="305.54" y2="197.37" fill="none" stroke="#266e99" stroke-miterlimit="10" stroke-width="0.88"/><line x1="294.43" y1="166.53" x2="301.01" y2="184.8" fill="none" stroke="#266e99" stroke-miterlimit="10" stroke-width="0.88"/><line x1="287.82" y1="148.16" x2="292.71" y2="161.75" fill="none" stroke="#266e99" stroke-miterlimit="10" stroke-width="0.88"/><line x1="294.89" y1="179.15" x2="299.91" y2="193.07" fill="none" stroke="#266e99" stroke-miterlimit="10" stroke-width="0.88"/><line x1="282.18" y1="143.86" x2="292.6" y2="172.78" fill="none" stroke="#266e99" stroke-miterlimit="10" stroke-width="0.88"/><line x1="294.88" y1="189.26" x2="297.81" y2="197.4" fill="none" stroke="#266e99" stroke-miterlimit="10" stroke-width="0.88"/><line x1="286.71" y1="166.56" x2="293.29" y2="184.84" fill="none" stroke="#266e99" stroke-miterlimit="10" stroke-width="0.88"/><line x1="280.09" y1="148.19" x2="284.98" y2="161.78" fill="none" stroke="#266e99" stroke-miterlimit="10" stroke-width="0.88"/><line x1="287.17" y1="179.18" x2="292.18" y2="193.1" fill="none" stroke="#266e99" stroke-miterlimit="10" stroke-width="0.88"/><line x1="274.46" y1="143.89" x2="284.87" y2="172.81" fill="none" stroke="#266e99" stroke-miterlimit="10" stroke-width="0.88"/><line x1="287.16" y1="189.3" x2="290.09" y2="197.44" fill="none" stroke="#266e99" stroke-miterlimit="10" stroke-width="0.88"/><line x1="278.98" y1="166.6" x2="285.56" y2="184.87" fill="none" stroke="#266e99" stroke-miterlimit="10" stroke-width="0.88"/><line x1="272.36" y1="148.22" x2="277.26" y2="161.81" fill="none" stroke="#266e99" stroke-miterlimit="10" stroke-width="0.88"/><line x1="279.44" y1="179.21" x2="284.45" y2="193.14" fill="none" stroke="#266e99" stroke-miterlimit="10" stroke-width="0.88"/><line x1="266.73" y1="143.92" x2="277.15" y2="172.85" fill="none" stroke="#266e99" stroke-miterlimit="10" stroke-width="0.88"/><line x1="279.43" y1="189.33" x2="282.36" y2="197.47" fill="none" stroke="#266e99" stroke-miterlimit="10" stroke-width="0.88"/><line x1="271.25" y1="166.63" x2="277.83" y2="184.9" fill="none" stroke="#266e99" stroke-miterlimit="10" stroke-width="0.88"/><line x1="264.64" y1="148.26" x2="269.53" y2="161.85" fill="none" stroke="#266e99" stroke-miterlimit="10" stroke-width="0.88"/><path d="M359.05,146.37c-1.11.78-.26,1.37-2.22,1.47-1.18.06-2.35-.73-3.51-.86-2.39-.28-4.57.94-6.74.93-1.06,0-3.06-1.56-3.87-1.33-1.3.37-3.14,1.52-4.19.6.24.21-3.8,2.4-4.3,2.59-2.41.93-4.47.31-6.79-.85-.38-.19-1,.08-1.47-.08s-.26-1.08-.76-1.29c-1.16-.48-1.91.3-2.9-.62a6.08,6.08,0,0,1-7.25,2c-.8-.29-.64-1.17-1.24-1.41s-1.49.1-2.17-.06c-.25-.06-1.54-.79-1.83-.92a7,7,0,0,0-1.65,0c-.06-.22,0-.42-.07-.64-1.29-.17-2,1-3.22,1,.11.45-.17,1.08-.07,1.52a48.29,48.29,0,0,1-6.08.75c-1.88-.33-1.15-1.63-2.85-2.43a4,4,0,0,1-2.28,1.68c-.73-1.31-2.67-2.35-4.08-1.65a2.92,2.92,0,0,1-.86,2.66c-2.1-1.23-4-.29-6.11-.2s-3.89-1-5.91-.84c-7.35.65-6.87-.48-8.46-.84s-8.21,4.67-12.61,1.6c-5.53-3.86-2.9-4-12.73-3.77-2.37,0-1.59-1.58-1.08-1.54l-1.34-.6c.67-4.07,7-2.91,9.32-3.38,1.75-.36,3.54-1.71,3.49-3.5l2-.22c-.17-2.86,6.81-1.43,11.1-1.06,2.19-2.26,6.33-.61,8.87-2.81a22.77,22.77,0,0,1-9.07-.91l10-1.09c0-.48-1.26-4.8,3.58-5.81a13.1,13.1,0,0,1,5.81.58,5.82,5.82,0,0,1-.39-3,2,2,0,0,1,2.27-1.6c-1.52-2.21,1.75-7.6,8.26-2.42.57-1.07,0-2.36-.15-3.56s.46-2.82,1.66-2.64c-3.76-5.54,3.59-16.24,18.56-9.88,3.67,1.57,7.72,4,8.13,8a5.65,5.65,0,0,1,7,7.37c1.87,1.54,5-.81,7,.54s.72,4.53,1.71,6.69c2.63.07,8,.5,10,2.26a4.5,4.5,0,0,1-2.71,7.83l1.72,1.28c.73-1.39,2.82-1.55,4.13-.66,1,.68,1.1,1.71,1.79,2.58,1.26,1.61,7.16,3.86,3.64,5,.95-.32,3.28.33,3.33,1.57S359.83,145.82,359.05,146.37Zm-82.88-16-.9.18a5.42,5.42,0,0,1,.89-.07A.37.37,0,0,0,276.17,130.41Z" fill="#266e99"/><polygon points="107.78 392.31 107.78 365.94 19.97 305.2 19.97 327.63 107.78 392.31" fill="#295b8f"/><path d="M90.24,306s9.55,1.91,17.54,2.6,13.34-1,24.08.71,33.09,15.55-2.22,19.82S62.1,306.27,90.24,306Z" fill="#3a7fc7"/><path d="M181.26,328.26s2.45,4,33.15,0,41.13-6.83,58.77-6.8,8.6-4.7,44-8.47,65.2.64,48.76,6.79-2.79,15-40.66,15.85-26.7-9-43.54-10.38-29,2.21-46.94,4.37-29.18,2.61-17.64,6.51" fill="#3a7fc7"/><circle cx="65.4" cy="249.55" r="3.39" fill="#b5cfe2"/><circle cx="74.12" cy="240.44" r="3.39" fill="#b5cfe2"/><circle cx="77.13" cy="252.5" r="3.39" fill="#b5cfe2"/><circle cx="85.93" cy="244.34" r="3.39" fill="#b5cfe2"/><circle cx="87.6" cy="260.65" r="3.39" fill="#b5cfe2"/><circle cx="98.06" cy="250.65" r="3.39" fill="#b5cfe2"/><circle cx="69.87" cy="261.25" r="3.39" fill="#b5cfe2"/><circle cx="92.22" cy="231.37" r="3.39" fill="#b5cfe2"/><circle cx="77.51" cy="226.93" r="3.39" fill="#b5cfe2"/><circle cx="61.18" cy="234.75" r="3.39" fill="#b5cfe2"/><circle cx="54.26" cy="254.48" r="3.39" fill="#b5cfe2"/><path d="M257.74,281.16a.63.63,0,0,1,.07-.3,3,3,0,0,0,.15-.59,2.71,2.71,0,0,1,.55-.88,21.67,21.67,0,0,1,1.65-1.67,4,4,0,0,1,1.68-1,2.05,2.05,0,0,1,.49-.06.66.66,0,0,0,.32-.05.15.15,0,0,0,.09-.21.1.1,0,0,0,0-.05s-.05-.07-.07-.1a.54.54,0,0,1,.15-.7h.06a.7.7,0,0,1,.59-.26h.7a.31.31,0,0,1,.19,0h0a.31.31,0,0,1,.42,0,.48.48,0,0,1,.19.47.18.18,0,0,1,.07.08.3.3,0,0,1,.13-.12.71.71,0,0,1,.57,0,.47.47,0,0,1,.22.62.22.22,0,0,1,.22.12.34.34,0,0,1,0,.31.61.61,0,0,1,.79.34v0a.9.9,0,0,1-.29,1,.14.14,0,0,1,.07.1.45.45,0,0,1-.06.28.37.37,0,0,1,.26.24.88.88,0,0,1,0,.23v.2a.38.38,0,0,1-.14.53l-.11,0a.6.6,0,0,1,0,.35.5.5,0,0,1-.25.39.53.53,0,0,1,.1.6.7.7,0,0,1,.15.91.59.59,0,0,1-.81.25l0,0a.37.37,0,0,1-.29.27.49.49,0,0,1-.23.7.35.35,0,0,1,.06.28.47.47,0,0,1-.31.33.54.54,0,0,1-.46.61h-.09a.69.69,0,0,1-.47-.18.32.32,0,0,1-.1-.18.53.53,0,0,1-.25.19,1.62,1.62,0,0,1-.66.08c-.12,0-.23-.08-.35,0a.5.5,0,0,1-.34,0,.4.4,0,0,1-.22-.38.39.39,0,0,1-.51-.22,1.68,1.68,0,0,1-.48.2,1,1,0,0,1-.48-.09.49.49,0,0,1-.31-.24.49.49,0,0,1,0-.24.62.62,0,0,1-.7-.17.13.13,0,0,1-.15.1.34.34,0,0,1-.17-.11l-.24-.18a.54.54,0,0,1-.25-.3.38.38,0,0,1,0-.15.58.58,0,0,1-.49-.23.33.33,0,0,1-.25.08.36.36,0,0,1-.3-.31c-.17.08-.35-.14-.39-.34A.54.54,0,0,1,257.74,281.16Z" fill="#81ac6b"/><path d="M255.61,281.07a.48.48,0,0,1,.18-.43.92.92,0,0,1,.53-.21.57.57,0,0,1,.26,0l.14.05s.11-.05.15-.07a1.26,1.26,0,0,1,.61-.07,3.9,3.9,0,0,1,1.36.49c.42.19.85.33,1.26.55a1.71,1.71,0,0,1,.61.42c.09.11.11.32,0,.39a.53.53,0,0,1-.1.42c-.06.09-.16.19-.25.14a.12.12,0,0,1-.15.05.63.63,0,0,1-.3.51.32.32,0,0,1-.44-.11h0a.3.3,0,0,1-.39.15h-.19a.23.23,0,0,1-.12-.1.28.28,0,0,1-.15.15.25.25,0,0,1-.05.22.37.37,0,0,1-.32.09c-.16,0-.41-.07-.39-.31a.28.28,0,0,1-.37-.06c-.1.2-.41.16-.56.11s-.37-.18-.36-.34c-.19.06-.44-.19-.54-.32s0,0-.07-.06h-.09a.29.29,0,0,1-.12-.07.37.37,0,0,1-.07-.14c0-.05,0,0-.05-.05h-.08a.76.76,0,0,1-.27-.32,1.46,1.46,0,0,1-.05-.2.86.86,0,0,1-.06-.23A.61.61,0,0,1,255.61,281.07Z" fill="#648b3b"/><path d="M252,282.61H252a.62.62,0,0,1,.43-.25v0l-.1,0a1.07,1.07,0,0,0,.55.54c.13,0,.25,0,.38.07a1,1,0,0,1,.35.19,1.26,1.26,0,0,0,.7.27,1.13,1.13,0,0,0,.58-.18,1.17,1.17,0,0,0-.34-.79h0a0,0,0,0,1,0-.06h0v0l.05,0a2.36,2.36,0,0,1,.52-.21s0,0,0,0h0a2.36,2.36,0,0,1,.42.28,3.32,3.32,0,0,1,.38.37c.15.14.37,0,.51-.11a1.2,1.2,0,0,0,.25-.34v-.33a.06.06,0,0,0,.06.05h.13c.08,0,.15.2.22.21h.09m0,0h-.05a1.07,1.07,0,0,0-.31.52.46.46,0,0,0,.12.43l.08-.08c.1-.11.18-.22.28-.32a1.35,1.35,0,0,1,.32-.26c.26-.15.52-.3.79-.43s.46-.26.69-.37a1,1,0,0,1,.42-.31,1.13,1.13,0,0,1,.51-.1h.05a2.53,2.53,0,0,1-.85.84,5.48,5.48,0,0,0-1,.6,2,2,0,0,0-.43.44,1.82,1.82,0,0,1-.4.58,3.15,3.15,0,0,0-.29.22,1.54,1.54,0,0,0-.23.44,8.52,8.52,0,0,0-.26.9,13.15,13.15,0,0,0,0,3.81c0,.7.08,1.33.13,2a9.88,9.88,0,0,0,.25,1.8,4.93,4.93,0,0,0,.39,1.36c.28.27.61.47.89.75a5.81,5.81,0,0,1,.43.43c.14.15.18.17.26.26a4.31,4.31,0,0,0-1.12-.24,3,3,0,0,0-1.18-.23h-.94a1.45,1.45,0,0,0-.77.1l-.52.1a1.06,1.06,0,0,1-.61,0c-.17,0-.32-.15-.49-.2a1.83,1.83,0,0,0-1,.12.58.58,0,0,1,.05-.14,1.21,1.21,0,0,0,.21-.24.57.57,0,0,1,.13-.08,1.76,1.76,0,0,1,.91,0,4.6,4.6,0,0,0,.76-.4,8.85,8.85,0,0,1,.17-1,6.55,6.55,0,0,0,.09-1.4c0-.74-.05-1.49,0-2.23V290c-.1-1.4.23-2.8.16-4.15,0-.51-.06-1-.08-1.51-.1-.23-.7-.39-.84-.53a1.93,1.93,0,0,0-.74-.3,1.24,1.24,0,0,1-.57-.39,1.43,1.43,0,0,0-.57-.49c-.07,0-.05-.05,0-.05Z" fill="#c59d64"/><path d="M245.09,277.72a.5.5,0,0,1,.06-.46.51.51,0,0,1,.38-.18,1.7,1.7,0,0,1,0-.22.75.75,0,0,1,.07-.42.45.45,0,0,1,.24-.25c.11,0,.27.05.36,0a.27.27,0,0,1,0-.3.36.36,0,0,1,.18-.47h0a.44.44,0,0,1-.09-.61l0,0a.22.22,0,0,1,.15-.06h.06s0,0,0-.07a.14.14,0,0,1,0-.09.16.16,0,0,1,.2-.09c0-.15-.08-.4.08-.41a.44.44,0,0,1,.25.08.5.5,0,0,1,.69-.6h0v0h0a.15.15,0,0,1,.13,0v-.14h0c-.06-.16.07-.27.15-.39a.62.62,0,0,1,.16-.77.41.41,0,0,1,.56.17.14.14,0,0,1,0,.06v0h.14a.27.27,0,0,1,.26-.24,1,1,0,0,1,0-1.19.49.49,0,0,1,.7-.11.47.47,0,0,1,.17.22.61.61,0,0,1,.15-.41.13.13,0,0,1,.12,0,.81.81,0,0,1,.23-.74.46.46,0,0,1,.36-.09.5.5,0,0,1,.05-.13c0-.1-.12-.18-.06-.3a.21.21,0,0,1,.29-.08.29.29,0,0,1,.33-.25.31.31,0,0,1,.16.06.76.76,0,0,1,.11.14c0,.05,0,.12.09.07a.56.56,0,0,0,.05-.08.19.19,0,0,1,.19-.05c0-.24-.23-.47-.09-.7a.25.25,0,0,1,.35-.11.2.2,0,0,1,.11.11.36.36,0,0,1,.35,0,.22.22,0,0,1,.12.19.17.17,0,0,1,.17,0,.47.47,0,0,1,.16-.27.48.48,0,0,1,.18-.07c.07,0,.15,0,.15-.11s0-.19.14-.22a.41.41,0,0,1,.52.21.38.38,0,0,1,0,.15.48.48,0,0,0,0,.17h0a.51.51,0,0,1,.16-.52.25.25,0,0,1,.35.07.21.21,0,0,1,0,.19c.08,0,.17-.05.21,0a.23.23,0,0,1,.26-.07.34.34,0,0,1,.14.37.42.42,0,0,1,.57,0,.83.83,0,0,1,.29.75.21.21,0,0,1,.16-.08.2.2,0,0,1,.09.05.12.12,0,0,1,.18-.1.28.28,0,0,1,.11-.23.11.11,0,0,1,.15,0,.12.12,0,0,1,.16-.06h0a.19.19,0,0,1,.25-.08.1.1,0,0,1,0,0,.17.17,0,0,1,.24,0,.15.15,0,0,1,.06.09.62.62,0,0,1,.37-.59.51.51,0,0,1,.62.38v0h.16v.09c.18-.07.36.14.3.37a.31.31,0,0,1,.32.22.94.94,0,0,1,0,.16.78.78,0,0,1,.27.24.38.38,0,0,1,0,.41l0,0h0a.52.52,0,0,1,.7,0,.54.54,0,0,1,.09.7.19.19,0,0,1,.12.09.24.24,0,0,1,.33,0,.18.18,0,0,1,.05.07c.11-.18.34-.13.38.1h.22m0,0,.22.14a.16.16,0,0,1,.19.05.55.55,0,0,1,.28-.42.42.42,0,0,1,.49.07,1,1,0,0,1,.11,1.22h.12a.63.63,0,0,1-.08.23.16.16,0,0,1,.05.11c.06,0,.14,0,.17.05a.11.11,0,0,1,0,.08c.17-.05.44,0,.45.26v.09a.2.2,0,0,1-.06.25h0c.06,0,.14-.09.2,0a.14.14,0,0,1,0,.09c.06,0,.15-.08.2,0s0,.07,0,.12a1.22,1.22,0,0,1,0,.27h0a.24.24,0,0,1,.14.23.39.39,0,0,1,.38.13.19.19,0,0,1,0,.12c0,.05,0,.1,0,.15a.32.32,0,0,1,0,.27.19.19,0,0,1,.19,0,.27.27,0,0,1,.09.12v.31a.51.51,0,0,1,0,.42.3.3,0,0,1-.22.19.16.16,0,0,1,.07.14v.06a.21.21,0,0,1,.13.17.33.33,0,0,1-.1.32l-.15.09s0,.06,0,.13v.27a.7.7,0,0,1,.85.47,1.27,1.27,0,0,1,0,.77c-.08.22-.23.48-.45.46h0a1,1,0,0,0-.06.16h0a.16.16,0,0,1,.11.17h0c.15,0,.18.37.07.48a.35.35,0,0,1,.17.27.37.37,0,0,1-.16.36v.06a.29.29,0,0,1-.05.2h-.05a.22.22,0,0,0-.17.11c0,.05,0,.13,0,.17l.07.18a.58.58,0,0,1,.06.26c0,.14-.15.18-.25.19a.23.23,0,0,1-.14.29h0v.09h0a.29.29,0,0,0-.15.14.57.57,0,0,1,.17.46.66.66,0,0,1-.28.51.72.72,0,0,1-.57.12.37.37,0,0,1-.25-.22.16.16,0,0,1-.06.08.25.25,0,0,1-.14.06.36.36,0,0,0-.23.09c-.07.06-.14.13-.23.09a.14.14,0,0,1-.08-.1.26.26,0,0,1-.34-.13l0,0a.25.25,0,0,1-.34.07l-.06-.07a.24.24,0,0,1-.29.16.23.23,0,0,1-.16-.27.2.2,0,0,1-.26-.1s0,0,0,0a.28.28,0,0,1-.16.16.14.14,0,0,1-.18-.05.16.16,0,0,1-.22.09.18.18,0,0,1-.11-.14.23.23,0,0,1-.32.07.38.38,0,0,1-.15-.34.28.28,0,0,1-.39,0,.22.22,0,0,1-.05-.08.2.2,0,0,1-.27.05.87.87,0,0,1-.35-.28.48.48,0,0,1-.07-.23c0-.07,0-.05-.07-.1h0a.36.36,0,0,1-.13.21.15.15,0,0,1-.2,0,.23.23,0,0,1-.28.15.21.21,0,0,1-.11-.08.19.19,0,0,1-.22.16h0a.3.3,0,0,1-.11.23.32.32,0,0,1-.35,0,.19.19,0,0,1,0,.08.21.21,0,0,1-.23.07c-.11,0-.37,0-.41-.16a.2.2,0,0,1-.25,0h0a.38.38,0,0,1-.41.24.44.44,0,0,1-.29-.33.79.79,0,0,1-.7.48.85.85,0,0,1-.75-.24.37.37,0,0,1-.16.3.26.26,0,0,1-.21,0,.26.26,0,0,0-.09,0H254a1.22,1.22,0,0,1-.5-.08l-.17-.08a.23.23,0,0,1-.2.23c0,.2-.25.24-.35.1-.07.28-.4.36-.61.39a.63.63,0,0,1-.64-.21.71.71,0,0,1-.14.47.36.36,0,0,1-.28.16.11.11,0,0,1-.08-.09.39.39,0,0,1-.54-.14l0-.06a.59.59,0,0,1-.43.08s-.09-.05-.14,0l-.15.08a.5.5,0,0,1-.26.08.45.45,0,0,1-.46-.44s0,0,0-.07a.23.23,0,0,1-.3-.15,0,0,0,0,1,0,0c-.13,0-.3.05-.33-.12a.29.29,0,0,1-.23-.26.76.76,0,0,1-.62.12c-.17,0-.6-.07-.62-.35-.12.07-.27,0-.25-.2a.3.3,0,0,1-.28-.09.25.25,0,0,1,0-.22.51.51,0,0,1-.37-.15.4.4,0,0,1-.1-.33c-.3-.14-.66-.33-.7-.78s.31-.57.51-.85a1.13,1.13,0,0,1-.67-1.1.44.44,0,0,1,.05-.15.25.25,0,0,0,0-.17.24.24,0,0,0-.06-.08.3.3,0,0,1-.08-.21.32.32,0,0,1,.14-.37Z" fill="#9ed383"/><path d="M249.74,279.72a2.1,2.1,0,0,0-.9-.94,6.37,6.37,0,0,0-1.28-.7,9.13,9.13,0,0,0-3.05-.59,15.23,15.23,0,0,0-3.3.22,5.36,5.36,0,0,0-1.64.54,1.33,1.33,0,0,0-.54.46c-.1.19-.08.49-.28.61a.07.07,0,0,0,0,.09l0,0a.75.75,0,0,0,.4.44.26.26,0,0,0,0,.35c-.15.14-.33.4-.13.54a.44.44,0,0,0-.06.62h0a.5.5,0,0,0,.7,0,1.31,1.31,0,0,0,.3.36c.11.1.36.3.51.18a.23.23,0,0,0,.31.15.21.21,0,0,0,.1-.06.51.51,0,0,0,.47.27.25.25,0,0,0,.21.25h.21a1.14,1.14,0,0,1,.26.09,1.71,1.71,0,0,0,.38.13c.28.05,1,0,.93-.43a.73.73,0,0,0,.41.15h.84a.93.93,0,0,0,.65-.13.44.44,0,0,0,.16-.34.35.35,0,0,0,.38-.27.69.69,0,0,0,.59-.09.34.34,0,0,0,.12-.34.88.88,0,0,0,.42-.11c.26-.13.47-.27.76-.11a.71.71,0,0,0,.63.13.34.34,0,0,0,.2-.33.67.67,0,0,0,.39-.07c.07-.05.1-.1.17-.11a1.27,1.27,0,0,0,.28,0A.74.74,0,0,0,249.74,279.72Z" fill="#64934b"/><path d="M248.52,279.87a1.33,1.33,0,0,1-.39-.46,1.45,1.45,0,0,0-.3-.39,2.7,2.7,0,0,0-.9-.55,9.59,9.59,0,0,0-2.5-.39A10.8,10.8,0,0,0,243,278a2.61,2.61,0,0,0-1.09.3,3.21,3.21,0,0,0-1,.76,3.75,3.75,0,0,1-.78.81l0-.05s0-.08-.05,0l0,0a.06.06,0,0,0-.08,0,0,0,0,0,0,0,0v0a.48.48,0,0,0,0,.62.37.37,0,0,0,.52.05.26.26,0,0,0,.26.14.27.27,0,0,0,.23.3.26.26,0,0,0,.21-.06.4.4,0,0,0,.18.29.62.62,0,0,0,.62,0,.34.34,0,0,0,.36.23.6.6,0,0,0,.44-.3.35.35,0,0,0,.2.26.39.39,0,0,0,.2.52.33.33,0,0,0,.22,0,.32.32,0,0,0,.36.27.32.32,0,0,0,.18-.1.32.32,0,0,0,.41,0,.38.38,0,0,0,.09.13.45.45,0,0,0,.19.05c.14,0,.12,0,.18.12a.49.49,0,0,0,.68.18l0,0c0,.29.41.32.65.31s.44-.11.43-.3a.44.44,0,0,0,.58-.08.47.47,0,0,0,.1-.34c0-.1,0-.08.09-.11a.62.62,0,0,0,.17-.11.5.5,0,0,0,.14-.15c.06-.06.1-.05.19-.08a1,1,0,0,0,.51-.23c.11-.09.27-.32.18-.46a.55.55,0,0,0,.3-.48A.83.83,0,0,0,248.52,279.87Z" fill="#56812e"/><path d="M256.94,277.83a1.08,1.08,0,0,0,.17-.84.48.48,0,0,0-.47-.31.23.23,0,0,0-.07-.21.45.45,0,0,0-.32-.09.29.29,0,0,0-.22-.31.7.7,0,0,0-.09-.91.73.73,0,0,0-.8,0s-.09-.07-.12,0a1.61,1.61,0,0,1-.69.7,7.43,7.43,0,0,0-.81.65c-.53.5-1,1-1.57,1.49a15,15,0,0,0-1.47,1.28,4.31,4.31,0,0,0-.58.7.8.8,0,0,0-.12.84.88.88,0,0,0,.65.5.71.71,0,0,0,.57-.2.38.38,0,0,0,.39.22,1,1,0,0,0,.76-.41.55.55,0,0,0,.31,0,2.29,2.29,0,0,1,.64,0,.82.82,0,0,0,.7-.23.8.8,0,0,0,.95.27c.3-.09.7-.33.66-.7a.58.58,0,0,0,.48-.66v0a.61.61,0,0,0,.53,0,.64.64,0,0,0,.24-.22.64.64,0,0,1,.08-.14,1.33,1.33,0,0,1,.19-.14.87.87,0,0,0,.33-.7A.61.61,0,0,0,256.94,277.83Z" fill="#64934b"/><path d="M238.82,278.08a.59.59,0,0,0-.29-.59,1.6,1.6,0,0,0-.87-.3,1.62,1.62,0,0,0-.44,0l-.25.07c-.09,0-.17-.07-.25-.1a2.6,2.6,0,0,0-1,0,7.75,7.75,0,0,0-2.3.7c-.7.27-1.45.47-2.15.77a3.5,3.5,0,0,0-1,.58c-.15.16-.19.46,0,.56a.62.62,0,0,0,.09.56c.09.13.27.27.42.19a.2.2,0,0,0,.25.06.88.88,0,0,0,.53.74.6.6,0,0,0,.75-.17.55.55,0,0,0,.66.2.81.81,0,0,0,.31,0,.35.35,0,0,0,.2-.14.45.45,0,0,0,.24.21.31.31,0,0,0,.1.31.87.87,0,0,0,.53.13c.28,0,.69-.12.69-.44a.56.56,0,0,0,.63-.09c.16.27.7.21.93.15s.62-.25.62-.47c.31.08.74-.27.91-.45s.06-.08.13-.09h.14a.42.42,0,0,0,.2-.1.5.5,0,0,0,.13-.19c.05-.07,0,0,.07-.07l.15-.06a1,1,0,0,0,.45-.44,1.33,1.33,0,0,0,.1-.28,1.15,1.15,0,0,0,.11-.31A.87.87,0,0,0,238.82,278.08Z" fill="#4c7224"/><path d="M244.92,280.22h-.1a1.11,1.11,0,0,0-.69-.36v.06l.16.06a1.75,1.75,0,0,1-.94.77c-.21.05-.43,0-.64.09a2.06,2.06,0,0,0-.59.25,2.38,2.38,0,0,1-1.21.39,2,2,0,0,1-1-.25,1.54,1.54,0,0,1,.55-1.06h0a.06.06,0,0,0,.08,0v0l0,0v0l-.09,0a5.44,5.44,0,0,0-.86-.29s-.07.05,0,.06h0a5.22,5.22,0,0,0-.74.39,7.79,7.79,0,0,0-.63.51c-.26.2-.64,0-.87-.15a1.38,1.38,0,0,1-.4-.47s0-.38,0-.4m0-.05c-.07,0,0,.06-.09.06h-.28c-.12,0-.26.28-.38.3h0a.05.05,0,0,0-.09,0h0m0,.05h.11a1.51,1.51,0,0,1,.52.7.59.59,0,0,1-.21.6l-.15-.12c-.15-.14-.29-.3-.45-.44a3.84,3.84,0,0,0-.54-.35c-.42-.23-.87-.41-1.3-.6s-.82-.32-1.24-.47a1.71,1.71,0,0,0-.7-.43,2.2,2.2,0,0,0-.88-.14h-.06s0,0,0,0,0,0,0,0a3.81,3.81,0,0,0,1.51,1.06,11.15,11.15,0,0,1,1.74.84,2.78,2.78,0,0,1,.7.62c.22.28.35.62.66.81a2,2,0,0,1,.49.29,1.83,1.83,0,0,1,.36.62,10.53,10.53,0,0,1,.43,1.23c.47,1.72.06,3.54,0,5.32-.06.92-.16,1.84-.27,2.79a11.71,11.71,0,0,1-.45,2.5,5.88,5.88,0,0,1-.7,1.9c-.48.37-1,.7-1.51,1l-.7.61-.45.36a9.44,9.44,0,0,1,1.91-.34,5.84,5.84,0,0,1,2-.32h1.58a2.7,2.7,0,0,1,1.29.13,4.27,4.27,0,0,1,.87.14,2.2,2.2,0,0,0,1,0c.28-.09.55-.22.83-.29a3.55,3.55,0,0,1,1.65.16.66.66,0,0,0-.09-.19,2.57,2.57,0,0,1-.33-.33l-.22-.12a4,4,0,0,0-1.54,0,7.07,7.07,0,0,1-1.26-.55,11.16,11.16,0,0,0-.27-1.4,7.5,7.5,0,0,1-.11-1.95c0-1,.11-2.09.06-3.11v-.12c.21-1.9-.32-3.86-.16-5.77.05-.7.11-1.39.16-2.09.18-.32,1.13-.54,1.44-.74a3.54,3.54,0,0,1,1.23-.43,2.14,2.14,0,0,0,1-.54,2.42,2.42,0,0,1,1-.7c.07,0,0-.12,0-.11Z" fill="#ac8145"/><path d="M256.64,273.38a.58.58,0,0,0-.11-.65.84.84,0,0,0-.66-.24,1.57,1.57,0,0,0,.08-.31.93.93,0,0,0-.1-.59.73.73,0,0,0-.41-.34c-.17-.05-.44.07-.6,0a.35.35,0,0,0-.05-.43.46.46,0,0,0-.2-.61l-.14,0a.54.54,0,0,0,.23-.73.55.55,0,0,0-.14-.17.44.44,0,0,0-.25-.08h-.09s0,0,0-.1a.24.24,0,0,0,0-.12.32.32,0,0,0-.34-.13c.07-.21.13-.54-.14-.57a.68.68,0,0,0-.41.12.69.69,0,0,0-.38-.77,1.08,1.08,0,0,0-.75,0h-.05v-.06h0a.26.26,0,0,0-.21,0v-.25h-.06c.11-.21-.11-.37-.23-.54a.76.76,0,0,0-.22-1.05l0,0a.75.75,0,0,0-1,.33v-.05h-.21a.45.45,0,0,0-.43-.45h-.09a1.2,1.2,0,0,0,.09-1.66.94.94,0,0,0-1.32,0,1.56,1.56,0,0,0-.16.2.72.72,0,0,0-.25-.57.31.31,0,0,0-.21,0,.94.94,0,0,0-.37-1,.82.82,0,0,0-.59-.14.53.53,0,0,0-.08-.17c.07-.14.2-.26.1-.43s-.32-.15-.49-.09a.52.52,0,0,0-.63-.36.56.56,0,0,0-.17.09.61.61,0,0,0-.19.2s-.07.15-.16.09-.05-.09-.09-.11a.34.34,0,0,0-.31-.07c.08-.33.4-.65.17-1a.5.5,0,0,0-.69-.1l-.1.1a.69.69,0,0,0-.58,0,.39.39,0,0,0-.21.27.28.28,0,0,0-.28,0,.56.56,0,0,0-.27-.39.71.71,0,0,0-.28-.09c-.12,0-.26,0-.26-.16a.27.27,0,0,0-.21-.3h0c-.29-.06-.75,0-.88.29a.8.8,0,0,0-.05.21.67.67,0,0,1,0,.24l-.05,0a.6.6,0,0,0-.24-.7.45.45,0,0,0-.62.1.5.5,0,0,0-.08.26c-.12,0-.26-.06-.34.05a.42.42,0,0,0-.56-.14.4.4,0,0,0-.14.55h0a.86.86,0,0,0-1,0,1.09,1.09,0,0,0-.52,1.05.38.38,0,0,0-.27-.1.22.22,0,0,0-.15.06.2.2,0,0,0-.26-.15l-.05,0a.34.34,0,0,0-.17-.34.24.24,0,0,0-.26,0,.19.19,0,0,0-.26-.07.33.33,0,0,0-.47-.09l0,0a.29.29,0,0,0-.43,0,.15.15,0,0,0-.06.09.83.83,0,0,0-1.62-.28.61.61,0,0,0-.27,0s0,0-.05,0v.11a.43.43,0,0,0-.52.29.39.39,0,0,0,0,.24.53.53,0,0,0-.55.3.62.62,0,0,0-.07.23,1.54,1.54,0,0,0-.47.33.47.47,0,0,0,0,.57l0,.06h0a1,1,0,0,0-1.17,0,.71.71,0,0,0-.19.93.29.29,0,0,0-.18.13.46.46,0,0,0-.65.07h0a.34.34,0,0,0-.48-.08.31.31,0,0,0-.14.23h-.42a.05.05,0,0,0-.05,0v.32a.33.33,0,0,0-.3.06.77.77,0,0,0-.46-.57.84.84,0,0,0-.84.1,1.22,1.22,0,0,0-.21,1.69h-.19a.06.06,0,0,0,0,.06.64.64,0,0,0,.13.32.16.16,0,0,0-.09.15c-.1,0-.23,0-.28.07a.24.24,0,0,0,0,.12c-.28-.08-.74,0-.76.36v.12a.25.25,0,0,0,.09.34h0v.05c-.1-.06-.23-.12-.33,0a.17.17,0,0,0-.07.13.36.36,0,0,0-.35-.07c-.06,0-.05.1-.07.17a2.28,2.28,0,0,0,0,.37h0a.32.32,0,0,0-.22.32.69.69,0,0,0-.64.19.26.26,0,0,0-.09.16.74.74,0,0,1-.07.21.48.48,0,0,0,0,.37.47.47,0,0,0-.31.05.31.31,0,0,0-.14.18,1.24,1.24,0,0,0,0,.43.58.58,0,0,0,.36.86.21.21,0,0,0-.13.19v.08a.32.32,0,0,0-.22.23.4.4,0,0,0,.17.45,1.83,1.83,0,0,0,.24.13c.08,0,.08.09.09.18a2.25,2.25,0,0,1,0,.26v.11a1.17,1.17,0,0,0-1.38.65,1.42,1.42,0,0,0,0,1.07c.12.31.37.7.74.64h0c0,.08.08.14.1.22h0a.19.19,0,0,0-.19.2.06.06,0,0,1,0,0c-.24,0-.31.5-.12.7a.48.48,0,0,0-.29.38.5.5,0,0,0,.26.5.11.11,0,0,0,0,.08.4.4,0,0,0,.07.28s0,0,.09,0,.26.07.28.14-.07.19-.09.25l-.12.25a.75.75,0,0,0-.1.36c0,.2.24.25.42.26a.32.32,0,0,0,.2.4h.09v.16a.49.49,0,0,1,.24.21.73.73,0,0,0-.3.64.87.87,0,0,0,.45.7,1.4,1.4,0,0,0,1,.15.65.65,0,0,0,.44-.3.31.31,0,0,0,.09.11.5.5,0,0,0,.24.09.64.64,0,0,1,.38.12.42.42,0,0,0,.39.12.2.2,0,0,0,.14-.14.46.46,0,0,0,.61-.23h0a.46.46,0,0,0,.63.07.46.46,0,0,0,.07-.07.42.42,0,0,0,.56.15.44.44,0,0,0,.2-.31.36.36,0,0,0,.46-.18.45.45,0,0,0,.25.22,1.18,1.18,0,0,1,.75,0,.26.26,0,0,0,.11-.14.47.47,0,0,0,.56.09.66.66,0,0,1,1-.53l0,0a.38.38,0,0,0,.45.06,1.49,1.49,0,0,0,.6-.39.59.59,0,0,0,.12-.31c0-.11,0-.09.13-.15h0a.38.38,0,0,0,.2.3.33.33,0,0,0,.34-.05.4.4,0,0,0,.54.18.28.28,0,0,0,.11-.08.31.31,0,0,0,.39.21.36.36,0,0,0,.19.32.55.55,0,0,0,.58,0,.21.21,0,0,0,0,.11.4.4,0,0,0,.39.1c.19,0,.63,0,.7-.22a.42.42,0,0,0,.42-.05h0a.66.66,0,0,0,.7.34.64.64,0,0,0,.48-.47,1.33,1.33,0,0,0,1.14.7,1.59,1.59,0,0,0,1.26-.46.48.48,0,0,0,.5.47l.12,0c.05,0,.11-.06.16-.06l.18.05a2.19,2.19,0,0,0,.84-.11,1.69,1.69,0,0,0,.28-.12.34.34,0,0,0,.34.32.33.33,0,0,0,.41.25.27.27,0,0,0,.17-.1c.11.38.7.49,1,.54a1.44,1.44,0,0,0,.74-.08.91.91,0,0,0,.33-.22.9.9,0,0,0,.23.65.62.62,0,0,0,.47.22.18.18,0,0,0,.15-.13.69.69,0,0,0,1-.26h0a1.1,1.1,0,0,0,.69.11c.08,0,.16-.07.23-.05a1.23,1.23,0,0,1,.26.12,1.36,1.36,0,0,0,.44.11c.4,0,.86-.31.76-.7a.44.44,0,0,0,.54-.25c.21.06.49.07.55-.17a.41.41,0,0,0,.38-.36,1.54,1.54,0,0,0,1.05.17c.29,0,1-.1,1.06-.5a.28.28,0,0,0,.38-.09.29.29,0,0,0,0-.18.62.62,0,0,0,.49-.13.32.32,0,0,0,.08-.31A1,1,0,0,0,255,279a.49.49,0,0,0,.17-.47c.52-.18,1.13-.46,1.22-1.08s-.5-.79-.82-1.18c.57-.3,1.28-.78,1.14-1.53a.68.68,0,0,0-.07-.2c0-.08-.1-.16-.06-.25l.1-.11a.47.47,0,0,0,.2-.28A.49.49,0,0,0,256.64,273.38Z" fill="#7eba5f"/><path d="M278.28,282.47a.39.39,0,0,0-.07-.26,4.44,4.44,0,0,1-.15-.52,2.11,2.11,0,0,0-.6-.76,18.25,18.25,0,0,0-1.68-1.49,4.45,4.45,0,0,0-1.75-.88,3.27,3.27,0,0,0-.53-.05c-.11,0-.25,0-.34,0a.13.13,0,0,1,0-.18l0,0,.07-.08a.43.43,0,0,0-.09-.61l-.05,0a0,0,0,0,0-.06,0v0a.79.79,0,0,0-.63-.23h-.77a.36.36,0,0,0-.2,0v0a.39.39,0,0,0-.44,0,.38.38,0,0,0-.2.41.27.27,0,0,0-.08.07.26.26,0,0,0-.14-.11,1,1,0,0,0-.6,0c-.22.08-.38.36-.24.55a.25.25,0,0,0-.23.1.28.28,0,0,0,0,.28.69.69,0,0,0-.88.32.7.7,0,0,0,.29.88.16.16,0,0,0-.07.09.26.26,0,0,0,.07.24.37.37,0,0,0-.29.22.67.67,0,0,0,0,.2s0,.06,0,.1,0,0,0,.07a.32.32,0,0,0,.1.45.25.25,0,0,0,.15.05.52.52,0,0,0-.05.3.41.41,0,0,0,.27.34.44.44,0,0,0-.12.54.54.54,0,0,0-.21.74l0,0a.69.69,0,0,0,.9.2.36.36,0,0,0,.31.23.36.36,0,0,0,0,.51.46.46,0,0,0,.19.08.26.26,0,0,0-.08.25.41.41,0,0,0,.32.29c-.06.33.27.55.57.53a.93.93,0,0,0,.51-.16.34.34,0,0,0,.1-.16.63.63,0,0,0,.27.16,2.28,2.28,0,0,0,.69.07.94.94,0,0,1,.37,0,.73.73,0,0,0,.36,0,.33.33,0,0,0,.24-.34.46.46,0,0,0,.54-.19,1.8,1.8,0,0,0,.51.17,1.21,1.21,0,0,0,.5-.07.54.54,0,0,0,.33-.22.23.23,0,0,0,0-.21.75.75,0,0,0,.78-.14.15.15,0,0,0,.16.08.66.66,0,0,0,.19-.09l.25-.16c.1-.07.23-.14.26-.26a.17.17,0,0,0,0-.14.69.69,0,0,0,.53-.2.42.42,0,0,0,.27.06.34.34,0,0,0,.32-.26c.17.07.37-.13.41-.31S278.49,282.57,278.28,282.47Z" fill="#64934b"/><path d="M304.8,270.46a4.44,4.44,0,0,0-1.28-1.48,3.28,3.28,0,0,1-.8-.82q-.18-.41-.33-.84a4.05,4.05,0,0,0-2.26-1.75,31.86,31.86,0,0,0-9.76-2.28,57.66,57.66,0,0,0-7.2.06q-6,.31-12,.87a22,22,0,0,0-4.11.66,4.52,4.52,0,0,0-2.38,1.37,4,4,0,0,0-.69,1.57,3.85,3.85,0,0,0,.15,2.55,2.29,2.29,0,0,0,1.23,1.16,11.36,11.36,0,0,0-2.19,2.08,3.44,3.44,0,0,0-.75,1.36,1.5,1.5,0,0,0,.39,1.45,1.91,1.91,0,0,0,1.2.36,5.05,5.05,0,0,0,2.89-.84,2.59,2.59,0,0,0,2.19.57,31.15,31.15,0,0,0,6.5-1.12,5.48,5.48,0,0,0,6,2.72,3.84,3.84,0,0,0,2.6,1.23c2.25.4,4.63.84,6.8.07a4.74,4.74,0,0,1,.91-.26,4.42,4.42,0,0,1,1,.05,9.42,9.42,0,0,0,4.69-.67,3.06,3.06,0,0,0,2-2,4.1,4.1,0,0,0,4.49-.78,1.85,1.85,0,0,0,.57-2.11,1.69,1.69,0,0,1-.19-.38c-.08-.33.2-.62.37-.92A2,2,0,0,0,304.8,270.46Z" fill="#64934b"/><path d="M297,263.91a5.16,5.16,0,0,0,5.16-1.09,5,5,0,0,0,2,0,2.06,2.06,0,0,0,1.47-1.43,2.56,2.56,0,0,1,.17-.6c.25-.46.85-.46,1.2-.83a1.43,1.43,0,0,0-.22-1.89,3,3,0,0,0-1.81-.6c.5-.2.59-1,.3-1.52a2.05,2.05,0,0,0-1.35-.82,5,5,0,0,1-1.52-.44,1.73,1.73,0,0,0-1.22-1.56,4.15,4.15,0,0,0-1.95,0c.28-.11,0-.57-.29-.67a11.91,11.91,0,0,0-5.26-.66c.16-.69-.69-1.06-1.32-1.1l-4.88-.29c-1.13-.06-2.27-.13-3.4-.16s-2.19,0-3.29,0a11.78,11.78,0,0,0-5.06.76,3.82,3.82,0,0,1-.93.39,3.23,3.23,0,0,1-1.2-.07c-2.08-.33-4.52-.19-5.87,1.67-2.06-.52-4.58-.57-5.88,1.32a5.63,5.63,0,0,1-.61.84c-.47.44-1.2.48-1.59,1a1.81,1.81,0,0,0,.35,2.07,3.74,3.74,0,0,0,1.91.8,2.37,2.37,0,0,0,2.24-.3c-.62-.35-1.43.3-1.5,1.09a2.15,2.15,0,0,0,1,1.92,4.9,4.9,0,0,0,2,.61,3.87,3.87,0,0,0,5.41.81l.34-.28a8.54,8.54,0,0,0,6.88.21c-.1-.37-.7-.23-.67.15a4.88,4.88,0,0,0,5.17.26,4.27,4.27,0,0,0,4.7,0,3.85,3.85,0,0,0,4.16.21c-.44.53-.57,2,1.7,2.44S297.38,264.31,297,263.91Z" fill="#6da152"/><path d="M279.87,279.43c-1.83.53-2.26,1-3.94,1.47s-2.38,1.89-3,3.51a5.74,5.74,0,0,0-.27,2.4c.05,1.51.17,3,.34,4.53a2.91,2.91,0,0,0,.33,1.25,3.19,3.19,0,0,0,1.15.88,30.53,30.53,0,0,1,4.13,2.7h-7.74a10.41,10.41,0,0,0-1.37-.12,2.55,2.55,0,0,0-.67.12H266l2.07-.8a1.55,1.55,0,0,0,.71-.44.55.55,0,0,0-.07-.75h0l1.71-5.32,1.12-6.49,3.89-3.77-1.56,2.07a8.87,8.87,0,0,1,4.3-2.72c.93-.27,1.9-.38,2.81-.71s2.53-.88,2.9-1.79c.17-.44.14-.84.31-1.26s.6-.48,1.05-.47c0,.12.2,0,.16.1-.18.44-1.1.16-.9,1.45A8.3,8.3,0,0,0,287,270.5c.53.12,1-.17,1,.36a9.73,9.73,0,0,1-.93,2.38,4.87,4.87,0,0,0-.83,2.13c.82-.37,1.34-1.15,2.1-1.62.94-.59,2.28-.15,3.41-.15a.7.7,0,0,0,.4-.09,4.31,4.31,0,0,0,.72-.92c.47-1.81,1.09-3.92,1.57-5.74,0-.18-.39-.64-.25-.78a.36.36,0,0,1,.5,0l0,0a.61.61,0,0,1,0,.27,7.37,7.37,0,0,1-.63,2.49l.49-.31.7-.23-.57,2.2a8.29,8.29,0,0,1-1.12,2.82A2.81,2.81,0,0,1,291,274.6a6.45,6.45,0,0,0-1-.21c-1,0-1.65,1.08-2.47,1.72-1.38,1.08-3.54.83-4.79,2.07C282.36,278.54,280.21,279,279.87,279.43Z" fill="#8b6837"/><path d="M279.4,277.28a23,23,0,0,1-3.2,2.07,20.38,20.38,0,0,0-3.34,2.58,5.21,5.21,0,0,0-1.58,2.19,6.09,6.09,0,0,0-.18,1.8l0,4.1a8.45,8.45,0,0,0,.57,3.64,10.17,10.17,0,0,0,2.43,2.51h-8.24l2.85-1.31a29.19,29.19,0,0,1,.14-7.05,23.65,23.65,0,0,0,.44-2.63,8.79,8.79,0,0,1,.27-3.25,3.33,3.33,0,0,1,.93-1.17,30.69,30.69,0,0,1,3.53-2,12.85,12.85,0,0,0,1.76-1.44c.31-.28.61-.57.9-.88,0,0,.16-.13.17-.19s-.07-.08-.12-.15,0-.3,0-.43a1.1,1.1,0,0,0-.14-.27,1,1,0,0,0-.44-.44,3.46,3.46,0,0,0-.88-.33c-.35-.06-.7-.16-1.05-.25l-2.12-.44c-.61-.15-1.86-.57-1.86-.57l-1.15-1-.44-.37-.41-.34h0v-.06a12.22,12.22,0,0,1-.33-2.07c0-1.6-.07-3.19-.1-4.78a3.15,3.15,0,0,1,.67,2.47c0,.88-.06,1.83-.06,2.75a3.62,3.62,0,0,0,.14,1.35,1.1,1.1,0,0,0,.33.35,6.86,6.86,0,0,0,.76.53c.51.32,1,.59,1,.6s-.08-.34-.15-.69-.12-.55-.15-.74v-.08a2.18,2.18,0,0,0-.22-.43,3.35,3.35,0,0,1,.15-3.61,24.92,24.92,0,0,0,.65,3.91v0a3.42,3.42,0,0,0,.47.74c.23.35.5.69.5.69l.61.29.7.2h0l1.24.36c.71.22,1.41.49,2.13.71.35.1.7.19,1.06.26a.34.34,0,0,1,.15.06.54.54,0,0,1,.05.11,1,1,0,0,0,1,.63.92.92,0,0,0,.28-.05l.08,0c.17-.1.23-.33.31-.5s.18-.4.26-.61.08-.26.11-.39c.1-.41.17-.88.17-.88l-.07,0-1.25-.84a12.24,12.24,0,0,1-.41-1.61l-.34-2.66a4.07,4.07,0,0,1,0-1.63,1.3,1.3,0,0,1,1.17-1,4.31,4.31,0,0,0-.63,2.91,12.18,12.18,0,0,0,.55,2.8c.07.21.13.41.21.62a.38.38,0,0,0,.22.26l.82.46a1.09,1.09,0,0,1,.17.13c.11.13.11.34.23.48,0-.07.07.43.15.68a2.55,2.55,0,0,1,.12.66A4.33,4.33,0,0,1,279.4,277.28Z" fill="#ac8145"/><path d="M282.9,273.21c-.24.05-.48.11-.71.18s-.25.26-.37.38a1.67,1.67,0,0,1-.71.19H281l-.16.11a1,1,0,0,0-.23.34.69.69,0,0,0,0,.35.61.61,0,0,0,.17.29l0,0h0l.1-.07v0h0l.07-.05c.12-.09.11-.25.21-.34a.87.87,0,0,1,.27-.14l.26-.12a.39.39,0,0,0,.19-.12.94.94,0,0,0,.1-.23,1,1,0,0,1,.31-.48,1.42,1.42,0,0,1,.29-.1,1.23,1.23,0,0,0,.26-.12S282.94,273.21,282.9,273.21Z" fill="#8b6837"/><path d="M280.19,272.79h0a.09.09,0,0,0,0,.07.75.75,0,0,1-.05.57l-.13.14c.1-.41.17-.88.17-.88l-.07-.05a.51.51,0,0,0,.33-.15A.3.3,0,0,1,280.19,272.79Z" fill="#8b6837"/><path d="M278.79,271c.09.21.17.41.24.62a.53.53,0,0,0,.11.21.4.4,0,0,0,.15.1c.32.17.65.61.84.64s.12.05.09.09a.09.09,0,0,1-.12,0h0l-1.21-.7a.18.18,0,0,1-.12-.19c0-.26-.2-.55-.24-.81h.18" fill="#8b6837"/><path d="M279.33,275.2a1.37,1.37,0,0,1-.85,0,2.44,2.44,0,0,1-.44-.13.57.57,0,0,1-.36-.32.09.09,0,0,0,0-.07.14.14,0,0,0-.08-.05c-.66-.22-3.22-1.16-4.31-1.56l1.24.36c.71.22,1.41.49,2.13.71.35.1.7.19,1.06.26a.34.34,0,0,1,.15.06.54.54,0,0,1,.05.11,1,1,0,0,0,1,.63.92.92,0,0,0,.28-.05Z" fill="#8b6837"/><path d="M279.25,275.24a.38.38,0,0,0,.33-.2.62.62,0,0,0,.09-.26,6.68,6.68,0,0,0,.37-1.41c-.09.21-.2.63-.29.85a2.85,2.85,0,0,0-.12.31,2,2,0,0,1-.16.4.51.51,0,0,1-.33.28" fill="#8b6837"/><path d="M275,274.17a9.36,9.36,0,0,0,1.6.6l.21.05h.35a.89.89,0,0,0,.28,0,.89.89,0,0,1,.23,0,.59.59,0,0,1,.17.1l.34.23a.89.89,0,0,1-.28-.07,1.62,1.62,0,0,0-.79-.08h-.24l-.15,0-.15,0-.21-.08-.18-.08-1.2-.57" fill="#8b6837"/><path d="M280.68,275.16a1.9,1.9,0,0,1-.19.77l-.06.14a2.38,2.38,0,0,0,.48-.83s.13-.39.13-.4h0a2.15,2.15,0,0,1-.36,0" fill="#8b6837"/><path d="M280.7,273.55c-.21-.22-.11-.5.16-.44-.15-.07-.15-.25-.21-.43s-.13-.06-.16-.07h-.05a3.68,3.68,0,0,0-.57.06h0v0a.29.29,0,0,0,0,.13l.06.1a.62.62,0,0,1,.07.19,1.31,1.31,0,0,0,.06.27" fill="#8b6837"/><path d="M271.42,284.47a4.12,4.12,0,0,1,.19-1.43,6,6,0,0,1,.56-1.06l.69-1a1.77,1.77,0,0,1,.53-.59,2.07,2.07,0,0,1,.47-.18,8,8,0,0,0,1-.38,9.52,9.52,0,0,0,.93-.52c.4-.24-.18.44-.18.44s1.17-.88,1.05-.71l1.34-.75.67-.37a3.88,3.88,0,0,1,.48-.3,8.58,8.58,0,0,1-3.83,2.59,11.27,11.27,0,0,0-1.6.78,3.24,3.24,0,0,0-1.23,1.26,3.91,3.91,0,0,0-.3.83c-.12.44-.23.84-.33,1.26" fill="#8b6837"/><path d="M277.48,273.61h0l0,0v.08s0,0,0,0h0a0,0,0,0,1,0,0v-.08Z" fill="#b88031"/><path d="M277.69,273.62h0v.08a0,0,0,0,1,0,0h0a0,0,0,0,1,0,0v-.08Z" fill="#b88031"/><path d="M301.09,271.75a6.51,6.51,0,0,0,5.87-1.09,6.58,6.58,0,0,0,2.3,0,2.24,2.24,0,0,0,1.66-1.41,2.54,2.54,0,0,1,.19-.61c.28-.44,1-.44,1.37-.82a1.31,1.31,0,0,0-.25-1.89,3.87,3.87,0,0,0-2.06-.63,1,1,0,0,0,.33-1.52,2.33,2.33,0,0,0-1.53-.82,6.38,6.38,0,0,1-1.73-.44,1.78,1.78,0,0,0-1.38-1.56,5.21,5.21,0,0,0-2.19,0c.31-.11,0-.57-.35-.67a15.19,15.19,0,0,0-6-.67c.19-.68-.78-1.05-1.49-1.09l-5.58-.29c-1.28-.06-2.57-.13-3.86-.16s-2.5,0-3.75,0a14.89,14.89,0,0,0-5.75.77,5.83,5.83,0,0,1-1.06.38,4.49,4.49,0,0,1-1.37-.06c-2.37-.32-5.14-.19-6.67,1.65-2.35-.52-5.22-.57-6.7,1.31a4.68,4.68,0,0,1-.69.84c-.54.44-1.37.49-1.81,1a1.63,1.63,0,0,0,.4,2.07,4.58,4.58,0,0,0,2.17.8,3,3,0,0,0,2.54-.3,1.3,1.3,0,0,0-1.7,1.09,2.11,2.11,0,0,0,1.15,1.92,6,6,0,0,0,2.27.61c.06,0,.21.23.27.28a2.14,2.14,0,0,0,.32.28,4,4,0,0,0,.71.44,5.69,5.69,0,0,0,.77.32c.23.07.4.23.64.3a.53.53,0,0,0,.33,0,.21.21,0,0,0,.15-.25.39.39,0,0,0,.34.21.36.36,0,0,0,.27-.05.32.32,0,0,0,.09-.33.92.92,0,0,0-.16-.31.35.35,0,0,0,.44.21A1.06,1.06,0,0,0,270,271c0,.08,0,.17,0,.25a.31.31,0,0,0,.3.12.85.85,0,0,0,.53-.18.43.43,0,0,0,.12-.51.65.65,0,0,0,.4.34.39.39,0,0,0,.29-.09.67.67,0,0,0,.19-.3,8.78,8.78,0,0,0,1.94.66,11.07,11.07,0,0,0,6-.37c-.12-.37-.8-.24-.77.15a6.22,6.22,0,0,0,5.89.25,5.36,5.36,0,0,0,5.34,0,4.86,4.86,0,0,0,4.73.22c-.51.5-.64,2,1.95,2.41S301.51,272.14,301.09,271.75Z" fill="#7eba5f"/><path d="M280.15,264.39c-.18.33.16.7.48.9a6.09,6.09,0,0,0,5.13.61c.44-.15.94-.6.67-1a11.35,11.35,0,0,0,7.26-.07c.53-.18,1.11-.5,1.18-1.05a7.71,7.71,0,0,0,3.51,0,2.69,2.69,0,0,0,1.23-.55,1.21,1.21,0,0,0,.44-1.19,11.44,11.44,0,0,0,2-.44c.62-.29,1.11-1.08.75-1.66a1.55,1.55,0,0,0-.65-.51,9.67,9.67,0,0,0-2.37-.88c.36-.32.75-.78.55-1.21a1.09,1.09,0,0,0-.61-.44,7.77,7.77,0,0,0-3.34-.46c.13-.68-.73-1.06-1.41-1.16-1.66-.25-3.55-.24-4.78.9.21.16.47-.19.35-.44a.88.88,0,0,0-.66-.31c-2.4-.34-5-.66-7.14.43a1.72,1.72,0,0,1-.47.19,1.67,1.67,0,0,1-.59-.05,8.51,8.51,0,0,0-3.26,0,4.28,4.28,0,0,0-2.65,1.8,4.48,4.48,0,0,0-3.45,1.69,2,2,0,0,0-.64,1.13c0,.44.3.93.74.88-.79.05-1.11,1.19-.68,1.85a3,3,0,0,0,2,1.13,11,11,0,0,0,3.79.18c-.32.21,0,.71.37.87a3.54,3.54,0,0,0,3.24-.21" fill="#7eba5f"/><path d="M230,298.71c.65,1.51,2.86,1.6,4.38,1.79,3.64.43,7.33.69,11,.91s7.45.32,11.18.27,7.44-.17,11.17-.28a37.21,37.21,0,0,0,5.38-.35,3.16,3.16,0,0,0,1.86-.74.78.78,0,0,0,0-1.05l.7-.34.41-.2a1.29,1.29,0,0,0,.33-.17c.13-.14.15-.49.2-.67l.22-.82a.11.11,0,0,0-.07-.13h0a6.29,6.29,0,0,0-1.15-.06,1,1,0,0,0,0-1.36,1,1,0,0,0-.35-.22,1.35,1.35,0,0,0-1.52.33,1.39,1.39,0,0,0-1.06,0,.44.44,0,0,0-.06-.16c-.2-.31-.59-.23-.92-.09.31-.58.54-1.3,0-1.81a.89.89,0,0,0-.78-.22,2,2,0,0,0-2.1.51.71.71,0,0,0-.84-.46v-.05c-.31-.43-.94-.18-1.31.09-.47-.63.51-1.32.86-1.78a1,1,0,0,0,.11-1.28c-.36-.42-1.06-.2-1.48,0a1.25,1.25,0,0,0-.64.58.59.59,0,0,0-.53-.09.53.53,0,0,0-.35.39h-.07a.48.48,0,0,0-.42.21,1.19,1.19,0,0,0-.81-.75c.38-.32.78-.8.36-1.22a.62.62,0,0,0-.7-.09,4.73,4.73,0,0,0-.45.23,1.25,1.25,0,0,0-.05-1.17,2.75,2.75,0,0,0,.85-1.72,1.21,1.21,0,0,0-.82-1.14,2.81,2.81,0,0,0-1.94.38,3.39,3.39,0,0,0-1.08.91,3.13,3.13,0,0,0-.18-.95.09.09,0,0,0-.12,0,1.76,1.76,0,0,0-1.25.85c-.11.17-.19.13-.39.16a1.82,1.82,0,0,0-.83.34,1.74,1.74,0,0,0-1-2.09c-.69-.24-1.64.11-1.73.81a1.06,1.06,0,0,0-1.16.62,1.85,1.85,0,0,0,.38,1.76,1,1,0,0,0-.7.95,2,2,0,0,0,.38,1.14,1,1,0,0,0-.7-.07,1,1,0,0,0-.7.95.64.64,0,0,0-.7,0,.52.52,0,0,0-.12.7.67.67,0,0,0-.6.52c-.11.38.17.7.47.95a1.68,1.68,0,0,0-1.21.34.38.38,0,0,1-.38.09,5.74,5.74,0,0,0-.93-.07,5.58,5.58,0,0,0-1,.12.66.66,0,0,1-.48,0l-.36-.12a3.3,3.3,0,0,0-1.4,0,.85.85,0,0,0-.19-1.2l-.05,0a.93.93,0,0,0-.9.08v0a.5.5,0,0,0-.56-.07c.35-.7.64-1.69,0-2.32a1.49,1.49,0,0,0-1.4-.35.91.91,0,0,0-.13-.74,1.42,1.42,0,0,0-1.33-.51c-.52.06-1.15.3-1.23.84a4.49,4.49,0,0,0,0,1c0,.28.09.56.14.83-.34,0-.21.35-.07.56a1,1,0,0,0-.52.36,1,1,0,0,0-.7-.7.89.89,0,0,0-1.05.55,1.46,1.46,0,0,0-1.62.2,1.72,1.72,0,0,0-.39,1.83,1.28,1.28,0,0,0-1.31.09,1,1,0,0,0-.39,1.17,1.48,1.48,0,0,0-1.46,1.5v.06a1.4,1.4,0,0,0-1.28.23A1.27,1.27,0,0,0,230,298.71Zm40.7-5.16a.44.44,0,0,1-.15.12A.44.44,0,0,1,270.67,293.55Zm-3,.35a.54.54,0,0,1,.1-.2.26.26,0,0,1-.11.24Z" fill="#64934b"/><path d="M262.09,304.5a1.43,1.43,0,0,0-.7-.39,2.22,2.22,0,0,0,.48-.44.14.14,0,0,0,0-.18l-.07,0h-.35a.33.33,0,0,0-.08-.34c-.22-.24-.66-.17-1-.06V303a.43.43,0,0,0-.43-.3A.52.52,0,0,0,260,302a1,1,0,0,0-.07-1.34.95.95,0,0,0-1.51.41v0a.82.82,0,0,0-.44-.36.69.69,0,0,0-.77.41c-.11.2-.07.49-.18.66s0-.17,0-.2a.54.54,0,0,0,0-.25.8.8,0,0,0-.48-.49c.17-.18.32-.4.2-.64a.62.62,0,0,0-.58-.25.75.75,0,0,0,.43-.64.47.47,0,0,0-.17-.33,1,1,0,0,0,.37-1.42,1.1,1.1,0,0,0-.14-.18,1.59,1.59,0,0,0-1.55-.43.83.83,0,0,0,.11-.88.7.7,0,0,0-.7-.42.94.94,0,0,0,0-.41.11.11,0,0,0-.1-.1h-.25a1.08,1.08,0,0,0,.24-.62.12.12,0,0,0-.11-.13h0a1.34,1.34,0,0,0,.33-.7.88.88,0,0,0-.65-1,2.28,2.28,0,0,0-1.75.24l-.1.07a.89.89,0,0,0-.23,0,.57.57,0,0,0,0-.7.48.48,0,0,0-.2-.14.55.55,0,0,0-.13-.65.77.77,0,0,0-.44-.17c.63-.82.86-1.74-.18-2.35a3.58,3.58,0,0,0-2.8.06,2.59,2.59,0,0,0-1.68,1.64c-.27-.29-.69-.53-1-.25a1,1,0,0,0-1.39-.33.87.87,0,0,0-.33.33.35.35,0,0,0-.28-.3h-.13c0-.55-.19-1.18-.82-1.24s-.77.33-.92.76h-.26a1.67,1.67,0,0,0-1.46-1,1.06,1.06,0,0,0-1,.65,1.56,1.56,0,0,0-.07.88.69.69,0,0,0-.95-.1,1,1,0,0,0-.21.31c-.07.11,0,.11,0,.13a.5.5,0,0,1-.27-.56l0-.19a1.67,1.67,0,0,0-.12-1.12,1.24,1.24,0,0,0-1.64-.56,1.1,1.1,0,0,0-.58.93.45.45,0,0,0-.44-.13.61.61,0,0,0-.48.61c-.57-.92-2-1.65-2.75-.65s-.1,1.94.65,2.64a.36.36,0,0,0-.25.11c-.18.18-.07.38.05.56a.44.44,0,0,0-.39.22.53.53,0,0,0-.09.39c-.43-.29-.94-.41-1.28,0a.69.69,0,0,0-.15.54,2.75,2.75,0,0,0-.84-.6,1.76,1.76,0,0,0-1.61-.06c-.42.3-.29.93-.15,1.34a2.17,2.17,0,0,0,.24.54,1,1,0,0,0-1,0c-.47.33-.16.82.18,1.13a.44.44,0,0,0-.16.61h0a.92.92,0,0,0,.48.39l.29.12a.72.72,0,0,0-.25.07.66.66,0,0,0-.39.38,3.53,3.53,0,0,0-.89-.7,1.87,1.87,0,0,0-1.32-.3c-.36.13-.33.5-.18.8a1.69,1.69,0,0,0,.23.36.44.44,0,0,0-.28.25.42.42,0,0,0,0,.48c-.59-.07-1.2,0-1.34.7s.52,1.11,1.15,1.4a1.6,1.6,0,0,0-.56.22.12.12,0,0,0,0,.17l0,0,.5.41a.92.92,0,0,1,.36.54,1.55,1.55,0,0,0-1.3-.26c-.47.25-.24.77,0,1.09a.47.47,0,0,0-.16.5.45.45,0,0,0,.18.27.48.48,0,0,0-.24.2.5.5,0,0,0,0,.55,1.76,1.76,0,0,0-.3.1l-.26.15a.35.35,0,0,1-.32.06,1.31,1.31,0,0,0-1.15.21,14.3,14.3,0,0,0,.62,3c2.63.66,4.85-.14,7.54.11s7.56-.08,10.25,0c5.28.15,8.43-1.17,13.69-1.64,3-.28,6-.65,9-1.13a.18.18,0,0,0,.07-.31Z" fill="#7eba5f"/><path d="M307,299.89a1.17,1.17,0,0,0-1.17-.23,1.4,1.4,0,0,0-1.24-1.54h-.08a1.09,1.09,0,0,0-.33-1.18,1.06,1.06,0,0,0-1.19-.09,1.82,1.82,0,0,0-.35-1.83,1.26,1.26,0,0,0-1.47-.2.81.81,0,0,0-1-.54.6.6,0,0,1-1.13.35c.12-.21.24-.54-.07-.56l.13-.83a3.91,3.91,0,0,0,.09-1c-.07-.54-.63-.78-1.12-.83a1.24,1.24,0,0,0-1.21.51,1.05,1.05,0,0,0-.12.74,1.27,1.27,0,0,0-1.29.35,2.1,2.1,0,0,0,0,2.32.44.44,0,0,0-.51.07h0a.73.73,0,0,0-.81-.07.89.89,0,0,0-.23,1.23,2.64,2.64,0,0,0-1.28.05l-.32.11a.58.58,0,0,1-.45,0,5.53,5.53,0,0,0-.9-.11,4.91,4.91,0,0,0-.86.07.31.31,0,0,1-.34-.09l-.24-.17a1.63,1.63,0,0,0-.87-.16,1,1,0,0,0,.44-1,.68.68,0,0,0-.55-.52.52.52,0,0,0-.22-.71.55.55,0,0,0-.53,0,.94.94,0,0,0-.65-.94.81.81,0,0,0-.61.07,2.18,2.18,0,0,0,.35-1.13,1,1,0,0,0-.65-1,2,2,0,0,0,.42-1.72.94.94,0,0,0-1.06-.62,1.17,1.17,0,0,0-1.42-.86L284,288a1.84,1.84,0,0,0-.86,2.1,1.69,1.69,0,0,0-.41-.24,1.4,1.4,0,0,0-.35-.1c-.19,0-.26,0-.35-.17a1.65,1.65,0,0,0-1.15-.84.07.07,0,0,0-.1.05h0a3.12,3.12,0,0,0-.17.95,3.16,3.16,0,0,0-1-.91,2.31,2.31,0,0,0-1.77-.37,1.16,1.16,0,0,0-.79,1.1,2.75,2.75,0,0,0,.77,1.73,1.3,1.3,0,0,0-.05,1.17,2.86,2.86,0,0,0-.42-.24.53.53,0,0,0-.65.09c-.39.43,0,.91.33,1.22a1.17,1.17,0,0,0-.75.75.45.45,0,0,0-.38-.21h-.07a.47.47,0,0,0-.31-.38.52.52,0,0,0-.49.09,1.15,1.15,0,0,0-.58-.59c-.38-.21-1-.41-1.34,0a1.07,1.07,0,0,0,.09,1.28c.33.46,1.21,1.15.78,1.78-.33-.26-.91-.51-1.19-.08v.05a.42.42,0,0,0-.31,0,.6.6,0,0,0-.45.46,1.69,1.69,0,0,0-1.91-.51.84.84,0,0,0-.7.23,1.55,1.55,0,0,0,0,1.81c-.29-.14-.64-.22-.83.08a1.09,1.09,0,0,0,0,.17,1.17,1.17,0,0,0-1,0,1.13,1.13,0,0,0-1.39-.32,1,1,0,0,0-.49,1.35,1.14,1.14,0,0,0,.15.23,5.65,5.65,0,0,0-1,.06.11.11,0,0,0-.08.13l.2.82a2,2,0,0,0,.18.67,1.11,1.11,0,0,0,.3.17l.37.2.61.34a.84.84,0,0,0,0,1,2.6,2.6,0,0,0,1.69.7,30.76,30.76,0,0,0,4.89.34c3.39.11,6.77.23,10.16.26s6.79-.08,10.19-.3,6.69-.5,10-.94c1.39-.19,3.38-.28,4-1.81A1.34,1.34,0,0,0,307,299.89Zm-36.56-3.37a.37.37,0,0,1-.13-.12Zm2.51,0a.52.52,0,0,1,.09.2.22.22,0,0,1-.09-.17Z" fill="#7eba5f"/></g><g id="Text"><path d="M122.6,341.39h-1.47l-.39-5c-.14-1.73-.25-3.59-.27-4.5l-2.38,8.23h-1.43l-2.51-8.24c0,1.29-.08,3-.21,4.62l-.37,4.87h-1.44l.91-11h2l2.32,8,2.21-8h2.07Z" fill="#fff"/><path d="M131.45,337.67h-5.38c.14,2,1.05,2.71,2.27,2.71a3.49,3.49,0,0,0,2.19-.74l.64.88a4.56,4.56,0,0,1-2.94,1.06c-2.35,0-3.73-1.65-3.73-4.32s1.33-4.5,3.5-4.5,3.48,1.58,3.48,4.16C131.48,337.21,131.46,337.48,131.45,337.67ZM130,336.49c0-1.65-.66-2.56-2-2.56-1.12,0-1.86.78-2,2.66h4Z" fill="#fff"/><path d="M140.15,337.67h-5.38c.15,2,1.06,2.71,2.27,2.71a3.52,3.52,0,0,0,2.2-.74l.64.88a4.59,4.59,0,0,1-2.95,1.06c-2.35,0-3.73-1.65-3.73-4.32s1.33-4.5,3.51-4.5,3.47,1.58,3.47,4.16C140.18,337.21,140.17,337.48,140.15,337.67Zm-1.42-1.18c0-1.65-.66-2.56-2-2.56-1.12,0-1.86.78-2,2.66h4Z" fill="#fff"/><path d="M147,332.86l-.27,1.44a2.39,2.39,0,0,0-.73-.1c-1.06,0-1.67.75-2,2.37v4.82h-1.47V333h1.26l.15,1.72a2.4,2.4,0,0,1,2.25-1.91A3.25,3.25,0,0,1,147,332.86Z" fill="#fff"/><path d="M442.34,293.23h5.85l-.17,1.22h-4.16v3.76h3.6v1.2h-3.6v4.85h-1.52Z" fill="#fff"/><path d="M449.81,302.6V292.43l1.47-.17v10.3c0,.45.14.68.53.68a1.49,1.49,0,0,0,.54-.1l.39,1a2.56,2.56,0,0,1-1.17.28A1.66,1.66,0,0,1,449.81,302.6Z" fill="#fff"/><path d="M460.87,304.26H459.6l-.11-1.31a2.83,2.83,0,0,1-2.62,1.5,2.26,2.26,0,0,1-2.36-2.57v-6.05H456v5.89c0,1.15.39,1.58,1.3,1.58a2.54,2.54,0,0,0,2.11-1.46v-6h1.48Z" fill="#fff"/><path d="M469,296.59l-.62.93a3.92,3.92,0,0,0-2.2-.72c-1,0-1.55.43-1.55,1.11s.45,1,1.81,1.36c1.78.44,2.8,1.15,2.8,2.62,0,1.76-1.62,2.56-3.33,2.56a4.66,4.66,0,0,1-3.18-1.1l.78-.9a3.84,3.84,0,0,0,2.37.82c1.1,0,1.81-.48,1.81-1.28s-.42-1.16-2.05-1.59c-1.83-.48-2.55-1.26-2.55-2.45s1.3-2.32,3-2.32A4.52,4.52,0,0,1,469,296.59Z" fill="#fff"/><path d="M476.32,296.59l-.62.93a3.89,3.89,0,0,0-2.2-.72c-1,0-1.55.43-1.55,1.11s.45,1,1.81,1.36c1.78.44,2.8,1.15,2.8,2.62,0,1.76-1.61,2.56-3.33,2.56a4.66,4.66,0,0,1-3.18-1.1l.78-.9a3.84,3.84,0,0,0,2.37.82c1.1,0,1.81-.48,1.81-1.28s-.42-1.16-2.05-1.59c-1.82-.48-2.54-1.26-2.54-2.45s1.29-2.32,3-2.32A4.52,4.52,0,0,1,476.32,296.59Z" fill="#fff"/><path d="M322.9,318.68l-.83.93a3.82,3.82,0,0,0-2.52-1c-1.1,0-2,.51-2,1.57s.43,1.38,2.42,2c1.76.55,3.26,1.24,3.26,3.35,0,1.92-1.46,3.27-3.94,3.27a5.14,5.14,0,0,1-3.74-1.43l.83-.93a4.38,4.38,0,0,0,2.9,1.11c1.29,0,2.37-.64,2.37-2,0-1.07-.52-1.56-2.39-2.13-2.14-.66-3.26-1.47-3.26-3.19s1.44-2.88,3.47-2.88A4.66,4.66,0,0,1,322.9,318.68Z" fill="#fff"/><path d="M331.75,324.91h-5.38c.14,1.95,1.06,2.7,2.27,2.7a3.54,3.54,0,0,0,2.19-.73l.64.88a4.56,4.56,0,0,1-2.94,1.06c-2.35,0-3.73-1.65-3.73-4.33s1.33-4.49,3.51-4.49,3.47,1.58,3.47,4.16C331.78,324.45,331.76,324.72,331.75,324.91Zm-1.43-1.19c0-1.64-.65-2.56-2-2.56-1.12,0-1.86.79-2,2.66h3.95Z" fill="#fff"/><path d="M340.45,324.91h-5.38c.15,1.95,1.06,2.7,2.28,2.7a3.56,3.56,0,0,0,2.19-.73l.64.88a4.59,4.59,0,0,1-2.95,1.06c-2.35,0-3.73-1.65-3.73-4.33S334.83,320,337,320s3.47,1.58,3.47,4.16C340.48,324.45,340.47,324.72,340.45,324.91ZM339,323.72c0-1.64-.66-2.56-2-2.56-1.12,0-1.86.79-2,2.66h4Z" fill="#fff"/><rect x="125.67" y="226.94" width="103.71" height="48.31" fill="#fff"/><path d="M155.88,245.74a1.11,1.11,0,1,1-1.12-1.1A1.1,1.1,0,0,1,155.88,245.74Z" fill="#fff"/><path d="M160.27,246.67H158.8v-9.14l-2.5,1.52-.64-1,3.31-2h1.3Z" fill="#333"/><path d="M165.05,245.74a1.11,1.11,0,1,1-1.12-1.1A1.1,1.1,0,0,1,165.05,245.74Z" fill="#333"/><path d="M180.69,246.67h-2l-2-9.24-2,9.24h-1.9l-2.24-11H172l1.78,9.7,2.13-9.7h1.62l2.17,9.7,1.84-9.7h1.4Z" fill="#333"/><path d="M190.83,245.84l-.34,1a1.7,1.7,0,0,1-1.65-1.26,2.87,2.87,0,0,1-2.51,1.26,2.45,2.45,0,0,1-2.69-2.54c0-1.81,1.36-2.79,3.71-2.79h1.3v-.62c0-1.22-.59-1.67-1.76-1.67a7.49,7.49,0,0,0-2.27.45l-.37-1.07a8.14,8.14,0,0,1,2.91-.58c2,0,3,1,3,2.8v3.86C190.12,245.44,190.4,245.68,190.83,245.84Zm-2.18-1.39v-1.94h-1.1c-1.56,0-2.34.57-2.34,1.73a1.33,1.33,0,0,0,1.46,1.52A2.16,2.16,0,0,0,188.65,244.45Z" fill="#333"/><path d="M198.3,239l-.62.93a3.92,3.92,0,0,0-2.2-.72c-1,0-1.55.43-1.55,1.11s.45,1,1.81,1.36c1.78.44,2.8,1.15,2.8,2.62,0,1.76-1.62,2.56-3.33,2.56a4.66,4.66,0,0,1-3.18-1.1l.78-.9a3.84,3.84,0,0,0,2.37.82c1.1,0,1.81-.48,1.81-1.28s-.42-1.16-2.05-1.59c-1.83-.48-2.55-1.26-2.55-2.45,0-1.34,1.3-2.32,3.05-2.32A4.46,4.46,0,0,1,198.3,239Z" fill="#333"/><path d="M205.61,239l-.62.93a3.92,3.92,0,0,0-2.2-.72c-1,0-1.55.43-1.55,1.11s.45,1,1.81,1.36c1.78.44,2.8,1.15,2.8,2.62,0,1.76-1.62,2.56-3.33,2.56a4.66,4.66,0,0,1-3.18-1.1l.78-.9a3.84,3.84,0,0,0,2.37.82c1.11,0,1.81-.48,1.81-1.28s-.42-1.16-2.05-1.59c-1.82-.48-2.54-1.26-2.54-2.45,0-1.34,1.29-2.32,3-2.32A4.46,4.46,0,0,1,205.61,239Z" fill="#333"/><path d="M214.27,243h-5.38c.14,1.95,1.06,2.7,2.27,2.7a3.52,3.52,0,0,0,2.2-.74l.64.89a4.65,4.65,0,0,1-2.95,1.05c-2.35,0-3.73-1.65-3.73-4.32s1.33-4.5,3.51-4.5,3.47,1.59,3.47,4.16C214.3,242.49,214.28,242.76,214.27,243Zm-1.43-1.19c0-1.65-.65-2.56-2-2.56-1.12,0-1.86.79-2,2.66h4Z" fill="#333"/><path d="M221.08,238.14l-.27,1.44a2.41,2.41,0,0,0-.74-.1c-1,0-1.66.76-2,2.37v4.82h-1.47v-8.44h1.26L218,240a2.42,2.42,0,0,1,2.26-1.91A3.25,3.25,0,0,1,221.08,238.14Z" fill="#333"/><path d="M140.75,265.87H139l-2.91-8.44h1.6l2.21,7.13,2.19-7.13h1.55Z" fill="#333"/><path d="M151.56,262.16h-5.37c.14,1.95,1.05,2.7,2.27,2.7a3.49,3.49,0,0,0,2.19-.74l.64.89a4.61,4.61,0,0,1-2.94,1.05c-2.36,0-3.73-1.65-3.73-4.32s1.33-4.5,3.5-4.5,3.48,1.59,3.48,4.16C151.6,261.69,151.58,262,151.56,262.16ZM150.14,261c0-1.65-.66-2.56-2-2.56-1.13,0-1.86.79-2,2.66h3.95Z" fill="#333"/><path d="M158.38,257.34l-.27,1.44a2.45,2.45,0,0,0-.74-.1c-1.06,0-1.66.76-2,2.37v4.82h-1.47v-8.44h1.27l.14,1.72a2.41,2.41,0,0,1,2.26-1.91A3.31,3.31,0,0,1,158.38,257.34Z" fill="#333"/><path d="M166.19,254v11.83h-1.3l-.14-1.17a2.82,2.82,0,0,1-2.43,1.36c-2,0-3.19-1.74-3.19-4.37s1.25-4.45,3.31-4.45a3,3,0,0,1,2.28,1v-4.41Zm-1.47,9.61v-4.13a2.41,2.41,0,0,0-2-1.11c-1.26,0-2,1.06-2,3.25s.7,3.23,1.92,3.23A2.42,2.42,0,0,0,164.72,263.65Z" fill="#333"/><path d="M175.39,265.87h-1.27l-.11-1.31a2.83,2.83,0,0,1-2.62,1.5,2.26,2.26,0,0,1-2.36-2.57v-6.06h1.48v5.9c0,1.15.38,1.58,1.29,1.58a2.55,2.55,0,0,0,2.12-1.46v-6h1.47Z" fill="#333"/><path d="M184.75,259.82v6.05h-1.47V260c0-1.27-.52-1.63-1.33-1.63a2.55,2.55,0,0,0-2.15,1.48v6h-1.47v-8.44h1.27l.12,1.25a3.09,3.09,0,0,1,2.58-1.44A2.31,2.31,0,0,1,184.75,259.82Z" fill="#333"/><path d="M192.8,258.2l-.63.93a3.89,3.89,0,0,0-2.19-.72c-1,0-1.55.43-1.55,1.11s.44,1,1.8,1.36c1.78.44,2.81,1.15,2.81,2.62,0,1.76-1.62,2.56-3.33,2.56a4.69,4.69,0,0,1-3.19-1.1l.79-.9a3.82,3.82,0,0,0,2.37.82c1.1,0,1.8-.48,1.8-1.28s-.41-1.16-2-1.59c-1.83-.48-2.55-1.26-2.55-2.45s1.3-2.32,3-2.32A4.47,4.47,0,0,1,192.8,258.2Z" fill="#333"/><path d="M199.37,265.49a3.24,3.24,0,0,1-1.89.57,2.12,2.12,0,0,1-2.27-2.4v-5.09h-1.47v-1.14h1.47v-1.9l1.47-.18v2.08h2l-.16,1.14h-1.84v5c0,.85.27,1.25,1,1.25a2.32,2.32,0,0,0,1.12-.34Z" fill="#333"/><path d="M207,262.16h-5.38c.14,1.95,1.06,2.7,2.27,2.7a3.52,3.52,0,0,0,2.2-.74l.64.89a4.65,4.65,0,0,1-2.95,1.05c-2.35,0-3.73-1.65-3.73-4.32s1.33-4.5,3.51-4.5,3.47,1.59,3.47,4.16C207,261.69,207,262,207,262.16ZM205.56,261c0-1.65-.65-2.56-2-2.56-1.12,0-1.86.79-2,2.66h3.95Z" fill="#333"/><path d="M213.61,265.49a3.24,3.24,0,0,1-1.89.57,2.12,2.12,0,0,1-2.27-2.4v-5.09H208v-1.14h1.47v-1.9l1.47-.18v2.08h2l-.16,1.14h-1.84v5c0,.85.27,1.25,1,1.25a2.32,2.32,0,0,0,1.12-.34Z" fill="#333"/><path d="M216.7,264.94a1.12,1.12,0,1,1-1.12-1.1A1.1,1.1,0,0,1,216.7,264.94Z" fill="#333"/><line x1="142.57" y1="234.23" x2="142.57" y2="249.89" fill="none" stroke="#333" stroke-linecap="round" stroke-miterlimit="10" stroke-width="2"/><line x1="150.39" y1="242.06" x2="134.74" y2="242.06" fill="none" stroke="#333" stroke-linecap="round" stroke-miterlimit="10" stroke-width="2"/><line x1="148.1" y1="247.6" x2="137.03" y2="236.53" fill="none" stroke="#333" stroke-linecap="round" stroke-miterlimit="10" stroke-width="2"/><line x1="148.1" y1="236.53" x2="137.03" y2="247.6" fill="none" stroke="#333" stroke-linecap="round" stroke-miterlimit="10" stroke-width="2"/><rect x="108.28" y="167.32" width="141.74" height="48.31" fill="#fff"/><path d="M124.92,179.11c0,2-1.28,3.43-4.56,6.71h4.82l-.18,1.23h-6.32v-1.17c3.78-3.94,4.71-5,4.71-6.71a1.65,1.65,0,0,0-1.76-1.77,2.72,2.72,0,0,0-2.21,1.17l-1-.77a3.93,3.93,0,0,1,3.25-1.62A2.94,2.94,0,0,1,124.92,179.11Z" fill="#333"/><path d="M129,186.12a1.11,1.11,0,1,1-1.12-1.1A1.1,1.1,0,0,1,129,186.12Z" fill="#333"/><path d="M144.64,187.05h-1.95l-2-9.24-2.05,9.24h-1.9l-2.24-11H136l1.77,9.7,2.13-9.7h1.62l2.18,9.7,1.84-9.7h1.39Z" fill="#333"/><path d="M154.78,186.22l-.34,1A1.7,1.7,0,0,1,152.8,186a2.89,2.89,0,0,1-2.52,1.26,2.45,2.45,0,0,1-2.69-2.54c0-1.81,1.36-2.79,3.72-2.79h1.29v-.62c0-1.22-.59-1.67-1.76-1.67a7.49,7.49,0,0,0-2.27.45L148.2,179a8.14,8.14,0,0,1,2.91-.58c2,0,3,1,3,2.8v3.86C154.08,185.82,154.35,186.06,154.78,186.22Zm-2.18-1.4v-1.93h-1.1c-1.55,0-2.34.57-2.34,1.73a1.33,1.33,0,0,0,1.46,1.52A2.17,2.17,0,0,0,152.6,184.82Z" fill="#333"/><path d="M162.25,179.38l-.62.93a3.92,3.92,0,0,0-2.2-.72c-1,0-1.55.43-1.55,1.1s.45,1,1.81,1.36c1.78.45,2.8,1.16,2.8,2.63,0,1.76-1.62,2.56-3.33,2.56a4.66,4.66,0,0,1-3.18-1.1l.78-.9a3.84,3.84,0,0,0,2.37.82c1.1,0,1.81-.48,1.81-1.28s-.42-1.16-2.05-1.59c-1.83-.48-2.54-1.26-2.54-2.45,0-1.34,1.29-2.32,3-2.32A4.46,4.46,0,0,1,162.25,179.38Z" fill="#333"/><path d="M169.56,179.38l-.62.93a3.89,3.89,0,0,0-2.19-.72c-1,0-1.56.43-1.56,1.1s.45,1,1.81,1.36c1.78.45,2.8,1.16,2.8,2.63,0,1.76-1.61,2.56-3.32,2.56a4.69,4.69,0,0,1-3.19-1.1l.78-.9a3.87,3.87,0,0,0,2.37.82c1.11,0,1.81-.48,1.81-1.28s-.41-1.16-2.05-1.59c-1.82-.48-2.54-1.26-2.54-2.45,0-1.34,1.29-2.32,3-2.32A4.46,4.46,0,0,1,169.56,179.38Z" fill="#333"/><path d="M178.22,183.33h-5.38c.15,2,1.06,2.71,2.27,2.71a3.52,3.52,0,0,0,2.2-.74l.64.88a4.59,4.59,0,0,1-2.95,1.06c-2.35,0-3.73-1.65-3.73-4.32s1.33-4.5,3.51-4.5,3.47,1.59,3.47,4.16C178.25,182.87,178.24,183.14,178.22,183.33Zm-1.42-1.18c0-1.65-.66-2.56-2-2.56-1.12,0-1.86.78-2,2.66h4Z" fill="#333"/><path d="M185,178.52l-.28,1.44a2.39,2.39,0,0,0-.73-.1c-1.06,0-1.67.75-2,2.37v4.82h-1.47v-8.44h1.26l.15,1.72a2.4,2.4,0,0,1,2.25-1.91A3.33,3.33,0,0,1,185,178.52Z" fill="#333"/><path d="M192.84,175.22v11.83h-1.29l-.15-1.17a2.81,2.81,0,0,1-2.43,1.36c-2.05,0-3.19-1.74-3.19-4.37s1.25-4.45,3.32-4.45a3,3,0,0,1,2.27,1V175Zm-1.47,9.6v-4.13a2.42,2.42,0,0,0-2-1.1c-1.27,0-2,1.06-2,3.25s.7,3.23,1.92,3.23A2.41,2.41,0,0,0,191.37,184.82Z" fill="#333"/><path d="M202.14,186.22l-.34,1a1.7,1.7,0,0,1-1.64-1.26,2.89,2.89,0,0,1-2.52,1.26A2.45,2.45,0,0,1,195,184.7c0-1.81,1.36-2.79,3.72-2.79H200v-.62c0-1.22-.59-1.67-1.76-1.67a7.49,7.49,0,0,0-2.27.45l-.37-1.07a8.15,8.15,0,0,1,2.92-.58c2,0,3,1,3,2.8v3.86C201.44,185.82,201.71,186.06,202.14,186.22Zm-2.18-1.4v-1.93h-1.1c-1.55,0-2.34.57-2.34,1.73a1.33,1.33,0,0,0,1.46,1.52A2.17,2.17,0,0,0,200,184.82Z" fill="#333"/><path d="M215.16,181v6.05h-1.47v-5.84c0-1.27-.54-1.64-1.18-1.64-.91,0-1.41.6-2,1.49v6h-1.47v-5.84c0-1.27-.54-1.64-1.18-1.64-.92,0-1.43.6-2,1.49v6h-1.47v-8.44h1.26l.13,1.24a2.82,2.82,0,0,1,2.43-1.43,2.13,2.13,0,0,1,2.13,1.52,2.94,2.94,0,0,1,2.52-1.52A2.29,2.29,0,0,1,215.16,181Z" fill="#333"/><path d="M225,182.82c0,2.56-1.13,4.42-3.31,4.42a2.71,2.71,0,0,1-2.21-1v4l-1.47.18V178.61h1.26l.12,1.14a3.06,3.06,0,0,1,2.49-1.33C224.12,178.42,225,180.17,225,182.82Zm-1.58,0c0-2.19-.64-3.23-1.91-3.23a2.58,2.58,0,0,0-2,1.31V185a2.18,2.18,0,0,0,1.86,1C222.68,186,223.42,185,223.42,182.82Z" fill="#333"/><path d="M229.05,177.45v1.16h2l-.16,1.14h-1.89v7.3h-1.47v-7.3h-1.51v-1.14h1.51v-1.15a2.35,2.35,0,0,1,2.64-2.42,4.59,4.59,0,0,1,2,.44l-.46,1.07a3.59,3.59,0,0,0-1.47-.32C229.37,176.23,229.05,176.63,229.05,177.45Z" fill="#333"/><path d="M124.73,198.58l-.62.93a3.92,3.92,0,0,0-2.2-.72c-1,0-1.55.43-1.55,1.1s.45,1,1.81,1.36c1.78.45,2.8,1.16,2.8,2.63,0,1.76-1.62,2.56-3.33,2.56a4.66,4.66,0,0,1-3.18-1.1l.78-.9a3.84,3.84,0,0,0,2.37.82c1.11,0,1.81-.48,1.81-1.28s-.42-1.16-2-1.59c-1.82-.48-2.54-1.26-2.54-2.45,0-1.34,1.29-2.32,3-2.32A4.46,4.46,0,0,1,124.73,198.58Z" fill="#333"/><path d="M131.31,205.87a3.24,3.24,0,0,1-1.89.57,2.11,2.11,0,0,1-2.27-2.4V199h-1.48v-1.14h1.48v-1.9l1.47-.18v2.08h2l-.16,1.14h-1.84v5c0,.84.27,1.24,1,1.24a2.36,2.36,0,0,0,1.12-.33Z" fill="#333"/><path d="M138.92,202.54h-5.37c.14,2,1,2.7,2.27,2.7a3.49,3.49,0,0,0,2.19-.74l.64.88a4.56,4.56,0,0,1-2.94,1.06c-2.36,0-3.73-1.65-3.73-4.32s1.33-4.5,3.5-4.5,3.48,1.59,3.48,4.16C139,202.07,138.94,202.34,138.92,202.54Zm-1.42-1.19c0-1.65-.66-2.56-2-2.56-1.13,0-1.86.78-2,2.66h3.95Z" fill="#333"/><path d="M143,194.77a1,1,0,1,1-1-1A1,1,0,0,1,143,194.77Zm-.29,11.48h-1.47v-8.44h1.47Z" fill="#333"/><path d="M152.51,198.2a8.42,8.42,0,0,1-2.47.25,2.24,2.24,0,0,1,1.49,2.13c0,1.67-1.2,2.87-3.22,2.87a3.47,3.47,0,0,1-1.07-.16,1,1,0,0,0-.42.78c0,.39.24.69,1.11.69h1.34c1.73,0,2.89,1,2.89,2.34,0,1.63-1.35,2.56-4,2.56s-3.62-.85-3.62-2.56h1.33c0,1,.44,1.41,2.29,1.41s2.47-.47,2.47-1.32S150,206,149,206h-1.33c-1.5,0-2.18-.75-2.18-1.6a1.84,1.84,0,0,1,.93-1.49,2.41,2.41,0,0,1-1.42-2.33,3,3,0,0,1,3.25-2.95,7.26,7.26,0,0,0,3.86-.75Zm-6,2.37a1.71,1.71,0,0,0,1.78,1.9,1.68,1.68,0,0,0,1.78-1.92,1.64,1.64,0,0,0-1.81-1.87A1.69,1.69,0,0,0,146.47,200.57Z" fill="#333"/><path d="M158.28,205.87a3.24,3.24,0,0,1-1.89.57,2.12,2.12,0,0,1-2.27-2.4V199h-1.47v-1.14h1.47v-1.9l1.47-.18v2.08h2l-.16,1.14h-1.84v5c0,.84.28,1.24,1,1.24a2.3,2.3,0,0,0,1.12-.33Z" fill="#333"/><path d="M170.41,200.2v6.05h-1.47v-5.84c0-1.27-.51-1.64-1.33-1.64a2.56,2.56,0,0,0-2.14,1.49v6H164v-8.44h1.27l.13,1.25a3.06,3.06,0,0,1,2.57-1.44A2.31,2.31,0,0,1,170.41,200.2Z" fill="#333"/><path d="M179.61,205.42l-.34,1a1.7,1.7,0,0,1-1.64-1.26,2.89,2.89,0,0,1-2.52,1.26,2.45,2.45,0,0,1-2.69-2.54c0-1.81,1.36-2.79,3.72-2.79h1.29v-.62c0-1.22-.59-1.67-1.76-1.67a7.54,7.54,0,0,0-2.27.45L173,198.2a8.15,8.15,0,0,1,2.92-.58c2,0,3,1,3,2.8v3.86C178.91,205,179.18,205.26,179.61,205.42Zm-2.18-1.4v-1.93h-1.1c-1.55,0-2.34.57-2.34,1.73a1.33,1.33,0,0,0,1.46,1.52A2.17,2.17,0,0,0,177.43,204Z" fill="#333"/><path d="M187.58,198.53l-.71.93a2.89,2.89,0,0,0-1.8-.62c-1.33,0-2.17,1-2.17,3.23s.84,3.12,2.17,3.12a3.11,3.11,0,0,0,1.84-.64l.67,1a4,4,0,0,1-2.58.93c-2.27,0-3.68-1.62-3.68-4.34s1.39-4.48,3.68-4.48A3.8,3.8,0,0,1,187.58,198.53Z" fill="#333"/><path d="M196,200.2v6.05h-1.47v-5.84c0-1.27-.55-1.64-1.35-1.64a2.6,2.6,0,0,0-2.13,1.48v6h-1.47V194.44l1.47-.16V199a3,3,0,0,1,2.5-1.36A2.33,2.33,0,0,1,196,200.2Z" fill="#333"/><path d="M210,202c0,2.61-1.38,4.42-3.77,4.42s-3.76-1.73-3.76-4.4,1.38-4.42,3.78-4.42S210,199.35,210,202Zm-5.94,0c0,2.19.77,3.22,2.17,3.22s2.18-1,2.18-3.24-.77-3.21-2.16-3.21S204.06,199.83,204.06,202Z" fill="#333"/><path d="M219.37,202c0,2.64-1.26,4.42-3.31,4.42a2.78,2.78,0,0,1-2.24-1.12l-.15.93h-1.29V194.42l1.47-.18v4.63a2.86,2.86,0,0,1,2.38-1.25C218.14,197.62,219.37,199.21,219.37,202Zm-1.58,0c0-2.4-.79-3.23-2-3.23a2.39,2.39,0,0,0-2,1.31v4a2.26,2.26,0,0,0,1.86,1.13C216.94,205.27,217.79,204.33,217.79,202Z" fill="#333"/><path d="M228.14,202.54h-5.38c.14,2,1.06,2.7,2.27,2.7a3.52,3.52,0,0,0,2.2-.74l.64.88a4.61,4.61,0,0,1-3,1.06c-2.35,0-3.73-1.65-3.73-4.32s1.33-4.5,3.51-4.5,3.47,1.59,3.47,4.16C228.17,202.07,228.15,202.34,228.14,202.54Zm-1.43-1.19c0-1.65-.65-2.56-2-2.56-1.12,0-1.86.78-2,2.66h4Z" fill="#333"/><path d="M236.88,200.2v6.05H235.4v-5.84c0-1.27-.51-1.64-1.33-1.64a2.56,2.56,0,0,0-2.14,1.49v6h-1.47v-8.44h1.26l.13,1.25a3.07,3.07,0,0,1,2.58-1.44A2.31,2.31,0,0,1,236.88,200.2Z" fill="#333"/><path d="M241.27,205.32a1.11,1.11,0,1,1-1.12-1.1A1.1,1.1,0,0,1,241.27,205.32Z" fill="#333"/><rect x="38.36" y="76.83" width="100.91" height="48.31" fill="#fff"/><path d="M54.91,88.42a2.45,2.45,0,0,1-2.08,2.46,2.47,2.47,0,0,1,2.42,2.6,3.32,3.32,0,0,1-3.65,3.28,4.07,4.07,0,0,1-3.22-1.44l.88-.82a3,3,0,0,0,2.29,1.06,2,2,0,0,0,2.16-2.1c0-1.47-.83-1.92-2.13-1.92h-.8L51,90.4h.54a1.8,1.8,0,0,0,1.94-1.89,1.59,1.59,0,0,0-1.78-1.63,3,3,0,0,0-2.21,1L48.69,87a4.3,4.3,0,0,1,3.05-1.26C53.79,85.7,54.91,87,54.91,88.42Z" fill="#333"/><path d="M59.15,95.64A1.11,1.11,0,1,1,58,94.53,1.11,1.11,0,0,1,59.15,95.64Z" fill="#333"/><path d="M74.79,96.56h-2l-2-9.23-2,9.23h-1.9l-2.24-11h1.48l1.78,9.7L70,85.54h1.62l2.17,9.7,1.84-9.7H77Z" fill="#333"/><path d="M85.7,92.34c0,2.61-1.38,4.42-3.76,4.42S78.17,95,78.17,92.35s1.38-4.41,3.78-4.41S85.7,89.67,85.7,92.34Zm-5.94,0c0,2.2.77,3.22,2.18,3.22s2.17-1,2.17-3.23-.77-3.22-2.16-3.22S79.76,90.15,79.76,92.35Z" fill="#333"/><path d="M88,94.9V84.74l1.48-.18V94.87c0,.45.14.67.52.67a1.35,1.35,0,0,0,.55-.1l.38,1a2.53,2.53,0,0,1-1.17.29A1.66,1.66,0,0,1,88,94.9Z" fill="#333"/><path d="M94.26,96.56H92.78V84.74l1.48-.18ZM96,91.86l3.46,4.7H97.7L94.35,92l3.11-3.83H99.1Z" fill="#333"/><path d="M107.23,92.85h-5.38c.15,2,1.06,2.71,2.28,2.71a3.57,3.57,0,0,0,2.19-.74l.64.88A4.58,4.58,0,0,1,104,96.76c-2.36,0-3.73-1.65-3.73-4.33s1.32-4.49,3.5-4.49,3.48,1.58,3.48,4.16A7.37,7.37,0,0,1,107.23,92.85Zm-1.42-1.18c0-1.65-.66-2.56-2-2.56-1.12,0-1.85.78-2,2.65h4Z" fill="#333"/><path d="M116,90.51v6H114.5V90.72c0-1.26-.52-1.63-1.33-1.63A2.55,2.55,0,0,0,111,90.58v6h-1.47V88.13h1.26l.13,1.25a3.06,3.06,0,0,1,2.58-1.44A2.3,2.3,0,0,1,116,90.51Z" fill="#333"/><path d="M56.61,111.54c0,2.64-1.26,4.42-3.31,4.42a2.8,2.8,0,0,1-2.24-1.12l-.15.92h-1.3V103.94l1.48-.18v4.63a2.82,2.82,0,0,1,2.38-1.25C55.38,107.14,56.61,108.72,56.61,111.54Zm-1.59,0c0-2.4-.78-3.23-2-3.23a2.39,2.39,0,0,0-2,1.31v4a2.27,2.27,0,0,0,1.85,1.14C54.18,114.79,55,113.84,55,111.54Z" fill="#333"/><path d="M60.75,104.29a1,1,0,1,1-1-1A1,1,0,0,1,60.75,104.29Zm-.29,11.47H59v-8.43h1.47Z" fill="#333"/><path d="M63.31,114.1V103.94l1.47-.18v10.31c0,.45.15.67.53.67a1.35,1.35,0,0,0,.55-.1l.38,1a2.56,2.56,0,0,1-1.17.29A1.66,1.66,0,0,1,63.31,114.1Z" fill="#333"/><path d="M74.53,103.94v11.82h-1.3l-.14-1.16A2.84,2.84,0,0,1,70.66,116c-2,0-3.19-1.75-3.19-4.37s1.25-4.45,3.31-4.45a3,3,0,0,1,2.28,1v-4.42Zm-1.47,9.6v-4.13a2.43,2.43,0,0,0-2-1.1c-1.26,0-2,1-2,3.24s.7,3.24,1.92,3.24A2.43,2.43,0,0,0,73.06,113.54Z" fill="#333"/><path d="M83.86,112.05H78.48c.14,2,1,2.71,2.27,2.71a3.55,3.55,0,0,0,2.19-.74l.64.88A4.56,4.56,0,0,1,80.64,116c-2.35,0-3.73-1.65-3.73-4.33s1.33-4.49,3.51-4.49,3.47,1.58,3.47,4.16C83.89,111.59,83.87,111.86,83.86,112.05Zm-1.43-1.18c0-1.65-.65-2.56-2-2.56-1.12,0-1.86.78-2,2.65h4Z" fill="#333"/><path d="M92.59,109.71v6.05H91.12v-5.84c0-1.26-.51-1.63-1.33-1.63a2.54,2.54,0,0,0-2.14,1.49v6H86.17v-8.43h1.27l.13,1.25a3,3,0,0,1,2.57-1.44A2.3,2.3,0,0,1,92.59,109.71Z" fill="#333"/><path d="M104.88,108.1l-.62.93a3.92,3.92,0,0,0-2.2-.72c-1,0-1.55.43-1.55,1.1s.45,1,1.81,1.36c1.78.45,2.8,1.15,2.8,2.63,0,1.76-1.62,2.56-3.33,2.56a4.66,4.66,0,0,1-3.18-1.11l.78-.89a3.84,3.84,0,0,0,2.37.81c1.1,0,1.81-.48,1.81-1.28s-.42-1.15-2-1.58c-1.83-.48-2.55-1.27-2.55-2.45,0-1.35,1.3-2.32,3-2.32A4.46,4.46,0,0,1,104.88,108.1Z" fill="#333"/><path d="M108.91,104.29a1,1,0,0,1-1,1,1,1,0,1,1,0-2A1,1,0,0,1,108.91,104.29Zm-.29,11.47h-1.47v-8.43h1.47Z" fill="#333"/><path d="M117.26,108.05l-.7.93a2.87,2.87,0,0,0-1.81-.63c-1.33,0-2.16,1-2.16,3.24s.83,3.12,2.16,3.12a3.16,3.16,0,0,0,1.84-.64l.67,1a4,4,0,0,1-2.57.93c-2.28,0-3.68-1.62-3.68-4.34s1.39-4.48,3.68-4.48A3.71,3.71,0,0,1,117.26,108.05Z" fill="#333"/><path d="M125.63,109.71v6.05h-1.47v-5.84c0-1.26-.54-1.63-1.34-1.63a2.57,2.57,0,0,0-2.13,1.47v6h-1.48V104l1.48-.16v4.71a3,3,0,0,1,2.49-1.36A2.32,2.32,0,0,1,125.63,109.71Z" fill="#333"/><path d="M130,114.84a1.11,1.11,0,1,1-1.12-1.11A1.11,1.11,0,0,1,130,114.84Z" fill="#333"/><rect x="369.67" y="86.08" width="154.48" height="88.12" fill="#fff"/><path d="M387.48,103.17h-1.39v2.64h-1.42v-2.64h-4.58v-1l3.22-7.18,1.23.52-2.9,6.54h3l.13-2.88h1.28V102h1.39Z" fill="#333"/><path d="M391,104.88a1.12,1.12,0,1,1-1.12-1.1A1.1,1.1,0,0,1,391,104.88Z" fill="#333"/><path d="M406.62,105.81h-1.95l-2-9.23-2.05,9.23h-1.91l-2.24-11h1.49l1.78,9.7,2.12-9.7h1.62l2.18,9.7,1.84-9.7h1.39Z" fill="#333"/><path d="M416.76,105l-.33,1a1.7,1.7,0,0,1-1.65-1.26,2.87,2.87,0,0,1-2.51,1.26,2.45,2.45,0,0,1-2.69-2.54c0-1.81,1.36-2.79,3.71-2.79h1.3v-.62c0-1.22-.59-1.66-1.76-1.66a7.81,7.81,0,0,0-2.28.44l-.36-1.07a8.36,8.36,0,0,1,2.91-.58c2,0,3,1,3,2.81v3.85C416.06,104.58,416.33,104.82,416.76,105Zm-2.17-1.39v-1.94h-1.11c-1.55,0-2.33.58-2.33,1.73a1.33,1.33,0,0,0,1.45,1.52A2.17,2.17,0,0,0,414.59,103.59Z" fill="#333"/><path d="M424.24,98.15l-.63.92a3.89,3.89,0,0,0-2.19-.72c-1,0-1.55.44-1.55,1.11s.44,1,1.8,1.36c1.78.45,2.81,1.15,2.81,2.62,0,1.76-1.62,2.56-3.33,2.56a4.69,4.69,0,0,1-3.19-1.1l.79-.9a3.76,3.76,0,0,0,2.36.82c1.11,0,1.81-.48,1.81-1.28s-.41-1.15-2.05-1.58c-1.82-.49-2.54-1.27-2.54-2.45,0-1.35,1.29-2.33,3-2.33A4.52,4.52,0,0,1,424.24,98.15Z" fill="#333"/><path d="M431.55,98.15l-.63.92a3.89,3.89,0,0,0-2.19-.72c-1,0-1.55.44-1.55,1.11s.45,1,1.81,1.36c1.77.45,2.8,1.15,2.8,2.62,0,1.76-1.62,2.56-3.33,2.56a4.69,4.69,0,0,1-3.19-1.1l.79-.9a3.76,3.76,0,0,0,2.37.82c1.1,0,1.81-.48,1.81-1.28s-.42-1.15-2.05-1.58c-1.83-.49-2.55-1.27-2.55-2.45,0-1.35,1.3-2.33,3-2.33A4.48,4.48,0,0,1,431.55,98.15Z" fill="#333"/><path d="M440.2,102.1h-5.37c.14,2,1.05,2.7,2.27,2.7a3.54,3.54,0,0,0,2.19-.73l.64.88a4.61,4.61,0,0,1-2.94,1c-2.36,0-3.73-1.64-3.73-4.32s1.33-4.5,3.5-4.5,3.48,1.59,3.48,4.17C440.24,101.63,440.22,101.91,440.2,102.1Zm-1.42-1.19c0-1.64-.66-2.56-2-2.56-1.12,0-1.85.79-2,2.66h3.95Z" fill="#333"/><path d="M447,97.28l-.27,1.44a2.83,2.83,0,0,0-.74-.09c-1.06,0-1.66.75-2,2.36v4.82h-1.47V97.38h1.27l.14,1.71a2.42,2.42,0,0,1,2.26-1.91A3.85,3.85,0,0,1,447,97.28Z" fill="#333"/><path d="M459.41,99.76v6h-1.48V100c0-1.26-.54-1.63-1.18-1.63-.91,0-1.41.59-2,1.49v6h-1.47V100c0-1.26-.54-1.63-1.18-1.63-.92,0-1.43.59-2,1.49v6h-1.47V97.38h1.26l.13,1.23a2.82,2.82,0,0,1,2.43-1.43,2.13,2.13,0,0,1,2.13,1.53,2.93,2.93,0,0,1,2.52-1.53A2.3,2.3,0,0,1,459.41,99.76Z" fill="#333"/><path d="M469.21,101.59c0,2.61-1.38,4.41-3.76,4.41s-3.76-1.72-3.76-4.4,1.38-4.42,3.78-4.42S469.21,98.91,469.21,101.59Zm-5.94,0c0,2.2.77,3.22,2.18,3.22s2.18-1,2.18-3.23-.77-3.22-2.16-3.22S463.27,99.39,463.27,101.6Z" fill="#333"/><path d="M471.5,104.15V94l1.47-.17v10.31c0,.44.14.67.53.67a1.3,1.3,0,0,0,.54-.1l.39,1a2.56,2.56,0,0,1-1.17.28A1.65,1.65,0,0,1,471.5,104.15Z" fill="#333"/><path d="M482.6,102.1h-5.37c.14,2,1,2.7,2.27,2.7a3.54,3.54,0,0,0,2.19-.73l.64.88a4.63,4.63,0,0,1-2.94,1c-2.36,0-3.73-1.64-3.73-4.32s1.33-4.5,3.5-4.5,3.48,1.59,3.48,4.17C482.64,101.63,482.62,101.91,482.6,102.1Zm-1.42-1.19c0-1.64-.66-2.56-2-2.56-1.12,0-1.85.79-2,2.66h3.95Z" fill="#333"/><path d="M486.39,105.81h-1.47V94l1.47-.17Zm1.75-4.7,3.46,4.7h-1.77l-3.34-4.61,3.1-3.82h1.65Z" fill="#333"/><path d="M499.32,105.81h-1.26L498,104.5a2.84,2.84,0,0,1-2.63,1.5c-1.47,0-2.35-.92-2.35-2.57V97.38h1.47v5.89c0,1.15.39,1.58,1.3,1.58a2.55,2.55,0,0,0,2.11-1.45v-6h1.47Zm-3.93-11.38a.93.93,0,1,1-.92-.91A.9.9,0,0,1,495.39,94.43Zm3.36,0a.92.92,0,1,1-.93-.91A.91.91,0,0,1,498.75,94.43Z" fill="#333"/><path d="M502.17,104.15V94l1.47-.17v10.31c0,.44.15.67.53.67a1.3,1.3,0,0,0,.54-.1l.39,1a2.56,2.56,0,0,1-1.17.28A1.66,1.66,0,0,1,502.17,104.15Z" fill="#333"/><path d="M513.28,102.1H507.9c.14,2,1.05,2.7,2.27,2.7a3.54,3.54,0,0,0,2.19-.73l.64.88a4.61,4.61,0,0,1-2.94,1c-2.35,0-3.73-1.64-3.73-4.32s1.33-4.5,3.5-4.5,3.48,1.59,3.48,4.17C513.31,101.63,513.29,101.91,513.28,102.1Zm-1.43-1.19c0-1.64-.66-2.56-2-2.56-1.12,0-1.86.79-2,2.66h4Z" fill="#333"/><path d="M386.12,117.35l-.62.92a3.89,3.89,0,0,0-2.19-.72c-1,0-1.56.44-1.56,1.11s.45,1,1.81,1.36c1.78.45,2.8,1.15,2.8,2.62,0,1.76-1.61,2.57-3.32,2.57a4.69,4.69,0,0,1-3.19-1.11l.78-.9A3.81,3.81,0,0,0,383,124c1.11,0,1.81-.48,1.81-1.28s-.41-1.15-2.05-1.58c-1.82-.49-2.54-1.27-2.54-2.45,0-1.35,1.29-2.33,3-2.33A4.47,4.47,0,0,1,386.12,117.35Z" fill="#333"/><path d="M390.15,113.54a1,1,0,1,1-1-1A1,1,0,0,1,390.15,113.54ZM389.87,125h-1.48v-8.43h1.48Z" fill="#333"/><path d="M399.23,119V125h-1.47v-5.84c0-1.26-.52-1.63-1.33-1.63a2.55,2.55,0,0,0-2.15,1.49v6h-1.47v-8.43h1.26l.13,1.25a3.06,3.06,0,0,1,2.58-1.45A2.31,2.31,0,0,1,399.23,119Z" fill="#333"/><path d="M408.57,113.18V125h-1.29l-.15-1.17a2.82,2.82,0,0,1-2.43,1.37c-2.05,0-3.19-1.75-3.19-4.38s1.25-4.45,3.32-4.45a3,3,0,0,1,2.27,1.05V113Zm-1.47,9.61v-4.13a2.43,2.43,0,0,0-2-1.11c-1.27,0-2,1.06-2,3.25S403.8,124,405,124A2.43,2.43,0,0,0,407.1,122.79Z" fill="#333"/><path d="M420.75,117.7l-4.4,6.08h4.45l-.18,1.23h-5.94v-1.1l4.39-6.08h-4v-1.25h5.7Z" fill="#333"/><path d="M428.92,125h-1.26l-.11-1.31a2.85,2.85,0,0,1-2.63,1.51c-1.47,0-2.35-.93-2.35-2.58v-6H424v5.89c0,1.15.39,1.58,1.3,1.58a2.55,2.55,0,0,0,2.11-1.45v-6h1.47Z" fill="#333"/><path d="M441.31,117.35l-.63.92a3.89,3.89,0,0,0-2.19-.72c-1,0-1.55.44-1.55,1.11s.45,1,1.81,1.36c1.77.45,2.8,1.15,2.8,2.62,0,1.76-1.62,2.57-3.33,2.57A4.69,4.69,0,0,1,435,124.1l.79-.9a3.76,3.76,0,0,0,2.37.82c1.1,0,1.81-.48,1.81-1.28s-.42-1.15-2.05-1.58c-1.83-.49-2.55-1.27-2.55-2.45,0-1.35,1.3-2.33,3-2.33A4.48,4.48,0,0,1,441.31,117.35Z" fill="#333"/><path d="M449.28,117.3l-.71.93a2.85,2.85,0,0,0-1.81-.63c-1.33,0-2.16,1-2.16,3.23s.83,3.13,2.16,3.13a3.16,3.16,0,0,0,1.84-.64l.68,1a4.06,4.06,0,0,1-2.58.93c-2.27,0-3.68-1.62-3.68-4.34s1.39-4.49,3.68-4.49A3.76,3.76,0,0,1,449.28,117.3Z" fill="#333"/><path d="M457.64,119V125h-1.47v-5.84c0-1.26-.54-1.63-1.34-1.63A2.57,2.57,0,0,0,452.7,119v6h-1.48V113.2l1.48-.16v4.71a3,3,0,0,1,2.49-1.37A2.33,2.33,0,0,1,457.64,119Z" fill="#333"/><path d="M468.25,125h-2l-1.47-7.1-1.52,7.1h-1.95l-2-8.43h1.47l1.52,7.41,1.66-7.41h1.65l1.59,7.41,1.53-7.41h1.41Z" fill="#333"/><path d="M478.35,121.3H473c.14,2,1.06,2.7,2.27,2.7a3.59,3.59,0,0,0,2.2-.73l.64.88a4.66,4.66,0,0,1-2.95,1.06c-2.35,0-3.73-1.65-3.73-4.33s1.33-4.5,3.51-4.5,3.47,1.59,3.47,4.17C478.38,120.83,478.36,121.11,478.35,121.3Zm-1.43-1.19c0-1.64-.65-2.56-2-2.56-1.12,0-1.86.79-2,2.66h3.95Z" fill="#333"/><path d="M485.16,116.48l-.27,1.44a2.83,2.83,0,0,0-.74-.09c-1,0-1.66.75-2,2.36V125h-1.47v-8.43h1.26l.14,1.71a2.43,2.43,0,0,1,2.26-1.91A3.77,3.77,0,0,1,485.16,116.48Z" fill="#333"/><path d="M497.29,125H496l-.11-1.31a2.86,2.86,0,0,1-2.63,1.51c-1.47,0-2.35-.93-2.35-2.58v-6h1.47v5.89c0,1.15.38,1.58,1.3,1.58a2.55,2.55,0,0,0,2.11-1.45v-6h1.47Z" fill="#333"/><path d="M506.65,119V125h-1.47v-5.84c0-1.26-.51-1.63-1.33-1.63a2.54,2.54,0,0,0-2.14,1.49v6h-1.48v-8.43h1.27l.12,1.25a3.07,3.07,0,0,1,2.58-1.45A2.31,2.31,0,0,1,506.65,119Z" fill="#333"/><path d="M516,113.18V125h-1.3l-.15-1.17a2.82,2.82,0,0,1-2.43,1.37c-2.05,0-3.18-1.75-3.18-4.38s1.24-4.45,3.31-4.45a3,3,0,0,1,2.27,1.05V113Zm-1.48,9.61v-4.13a2.43,2.43,0,0,0-1.95-1.11c-1.27,0-2.05,1.06-2.05,3.25s.7,3.24,1.92,3.24A2.42,2.42,0,0,0,514.52,122.79Z" fill="#333"/><path d="M382.59,134.61v1.17h2.05l-.16,1.13h-1.89v7.3h-1.48v-7.3h-1.5v-1.13h1.5v-1.16a2.35,2.35,0,0,1,2.64-2.41,4.6,4.6,0,0,1,2,.43l-.46,1.07a3.63,3.63,0,0,0-1.48-.32C382.91,133.39,382.59,133.79,382.59,134.61Z" fill="#333"/><path d="M392.48,143.38l-.34,1a1.72,1.72,0,0,1-1.65-1.27,2.88,2.88,0,0,1-2.51,1.27,2.46,2.46,0,0,1-2.69-2.55c0-1.81,1.36-2.78,3.71-2.78h1.3v-.63c0-1.22-.59-1.66-1.76-1.66a7.75,7.75,0,0,0-2.27.44l-.37-1.07a8.36,8.36,0,0,1,2.91-.58c2,0,3,1,3,2.81v3.85C391.77,143,392,143.22,392.48,143.38ZM390.3,142v-1.94h-1.1c-1.56,0-2.34.58-2.34,1.73a1.33,1.33,0,0,0,1.45,1.52A2.17,2.17,0,0,0,390.3,142Z" fill="#333"/><path d="M394.57,142.55V132.38l1.47-.17v10.31c0,.44.15.67.53.67a1.35,1.35,0,0,0,.55-.1l.38,1a2.56,2.56,0,0,1-1.17.29A1.66,1.66,0,0,1,394.57,142.55Z" fill="#333"/><path d="M399.27,142.55V132.38l1.48-.17v10.31c0,.44.14.67.52.67a1.35,1.35,0,0,0,.55-.1l.38,1a2.53,2.53,0,0,1-1.17.29A1.66,1.66,0,0,1,399.27,142.55Z" fill="#333"/><path d="M410.38,140.5H405c.15,1.95,1.06,2.7,2.28,2.7a3.56,3.56,0,0,0,2.19-.73l.64.88a4.64,4.64,0,0,1-2.95,1.06c-2.35,0-3.73-1.65-3.73-4.33s1.33-4.5,3.51-4.5,3.47,1.59,3.47,4.17C410.41,140,410.4,140.31,410.38,140.5ZM409,139.31c0-1.64-.66-2.56-2-2.56-1.12,0-1.86.79-2,2.66h4Z" fill="#333"/><path d="M419.12,138.16v6.05h-1.48v-5.84c0-1.26-.51-1.63-1.33-1.63a2.54,2.54,0,0,0-2.14,1.49v6H412.7v-8.43H414l.13,1.25a3.06,3.06,0,0,1,2.58-1.45A2.31,2.31,0,0,1,419.12,138.16Z" fill="#333"/><path d="M432.56,143.38l-.34,1a1.72,1.72,0,0,1-1.65-1.27,2.88,2.88,0,0,1-2.51,1.27,2.46,2.46,0,0,1-2.69-2.55c0-1.81,1.36-2.78,3.71-2.78h1.3v-.63c0-1.22-.59-1.66-1.76-1.66a7.81,7.81,0,0,0-2.28.44l-.36-1.07a8.36,8.36,0,0,1,2.91-.58c2,0,3,1,3,2.81v3.85C431.85,143,432.12,143.22,432.56,143.38ZM430.38,142v-1.94h-1.11c-1.55,0-2.33.58-2.33,1.73a1.33,1.33,0,0,0,1.45,1.52A2.17,2.17,0,0,0,430.38,142Z" fill="#333"/><path d="M434.65,142.55V132.38l1.47-.17v10.31c0,.44.15.67.53.67a1.3,1.3,0,0,0,.54-.1l.39,1a2.56,2.56,0,0,1-1.17.29A1.66,1.66,0,0,1,434.65,142.55Z" fill="#333"/><path d="M444.65,136.55l-.62.92a3.92,3.92,0,0,0-2.2-.72c-1,0-1.55.44-1.55,1.11s.45,1,1.81,1.36c1.78.45,2.8,1.15,2.8,2.62,0,1.76-1.62,2.57-3.33,2.57a4.66,4.66,0,0,1-3.18-1.11l.78-.9a3.78,3.78,0,0,0,2.37.82c1.1,0,1.81-.48,1.81-1.28s-.42-1.15-2-1.58c-1.83-.48-2.54-1.27-2.54-2.45,0-1.35,1.29-2.33,3-2.33A4.47,4.47,0,0,1,444.65,136.55Z" fill="#333"/><path d="M454.52,139.54h-1.71v4.67h-1.52v-11h2.9c2.75,0,4.19,1.06,4.19,3.13a2.88,2.88,0,0,1-2.38,3l3,4.94h-1.81Zm-.17-1.17c1.53,0,2.41-.58,2.41-2.06s-.78-1.94-2.59-1.94h-1.36v4Z" fill="#333"/><path d="M467.15,140.5h-5.38c.14,1.95,1.06,2.7,2.27,2.7a3.57,3.57,0,0,0,2.2-.73l.64.88a4.66,4.66,0,0,1-2.95,1.06c-2.35,0-3.73-1.65-3.73-4.33s1.33-4.5,3.51-4.5,3.47,1.59,3.47,4.17C467.18,140,467.16,140.31,467.15,140.5Zm-1.43-1.19c0-1.64-.65-2.56-2-2.56-1.12,0-1.86.79-2,2.66h4Z" fill="#333"/><path d="M476.32,136.16a8.08,8.08,0,0,1-2.47.26,2.23,2.23,0,0,1,1.49,2.13c0,1.66-1.2,2.86-3.22,2.86a3.47,3.47,0,0,1-1.07-.16,1,1,0,0,0-.42.79c0,.38.24.68,1.11.68h1.34c1.73,0,2.88,1,2.88,2.34,0,1.63-1.34,2.56-3.95,2.56s-3.62-.85-3.62-2.56h1.33c0,1,.43,1.41,2.29,1.41s2.46-.46,2.46-1.31-.64-1.2-1.69-1.2h-1.33c-1.5,0-2.18-.76-2.18-1.6a1.82,1.82,0,0,1,.93-1.49,2.41,2.41,0,0,1-1.42-2.34,3,3,0,0,1,3.25-2.95,7.2,7.2,0,0,0,3.85-.75Zm-6,2.37a1.72,1.72,0,0,0,1.78,1.91c1.15,0,1.77-.71,1.77-1.93a1.63,1.63,0,0,0-1.8-1.87A1.69,1.69,0,0,0,470.28,138.53Z" fill="#333"/><path d="M484.17,140.5h-5.38c.15,1.95,1.06,2.7,2.28,2.7a3.56,3.56,0,0,0,2.19-.73l.64.88a4.64,4.64,0,0,1-2.95,1.06c-2.35,0-3.73-1.65-3.73-4.33s1.33-4.5,3.51-4.5,3.47,1.59,3.47,4.17C484.2,140,484.19,140.31,484.17,140.5Zm-1.42-1.19c0-1.64-.66-2.56-2-2.56-1.12,0-1.85.79-2,2.66h4Z" fill="#333"/><path d="M492.91,138.16v6.05h-1.48v-5.84c0-1.26-.51-1.63-1.32-1.63a2.55,2.55,0,0,0-2.15,1.49v6h-1.47v-8.43h1.26l.13,1.25a3.06,3.06,0,0,1,2.58-1.45A2.31,2.31,0,0,1,492.91,138.16Z" fill="#333"/><path d="M387.28,162.58l-.34,1a1.7,1.7,0,0,1-1.65-1.26,2.87,2.87,0,0,1-2.51,1.26,2.45,2.45,0,0,1-2.69-2.54c0-1.81,1.36-2.79,3.71-2.79h1.3v-.62c0-1.22-.59-1.66-1.76-1.66a7.69,7.69,0,0,0-2.27.44l-.37-1.07a8.36,8.36,0,0,1,2.91-.58c2,0,3,1.05,3,2.81v3.85C386.57,162.18,386.84,162.42,387.28,162.58Zm-2.18-1.39v-1.94H384c-1.56,0-2.34.58-2.34,1.73a1.33,1.33,0,0,0,1.45,1.52A2.17,2.17,0,0,0,385.1,161.19Z" fill="#333"/><path d="M395.8,163.41h-1.26l-.11-1.31a2.84,2.84,0,0,1-2.63,1.5c-1.47,0-2.35-.92-2.35-2.57V155h1.47v5.89c0,1.15.39,1.58,1.3,1.58a2.55,2.55,0,0,0,2.11-1.45v-6h1.47Z" fill="#333"/><path d="M400.41,153.81V155h2l-.16,1.13h-1.89v7.3h-1.47v-7.3h-1.51V155h1.51v-1.16a2.35,2.35,0,0,1,2.64-2.41,4.66,4.66,0,0,1,2,.43l-.47,1.07a3.59,3.59,0,0,0-1.47-.32C400.73,152.59,400.41,153,400.41,153.81Z" fill="#333"/><path d="M414.84,151.58v11.83h-1.29l-.15-1.17A2.81,2.81,0,0,1,411,163.6c-2.05,0-3.18-1.74-3.18-4.37s1.24-4.45,3.31-4.45a3,3,0,0,1,2.27,1.05v-4.42Zm-1.47,9.61v-4.13a2.43,2.43,0,0,0-1.95-1.11c-1.27,0-2.05,1.06-2.05,3.25s.7,3.24,1.92,3.24A2.42,2.42,0,0,0,413.37,161.19Z" fill="#333"/><path d="M419.55,151.94a1,1,0,1,1-1-1A1,1,0,0,1,419.55,151.94Zm-.29,11.47h-1.47V155h1.47Z" fill="#333"/><path d="M428.59,159.7h-5.38c.14,2,1.06,2.7,2.27,2.7a3.59,3.59,0,0,0,2.2-.73l.64.88a4.65,4.65,0,0,1-2.95,1c-2.35,0-3.73-1.64-3.73-4.32s1.33-4.5,3.51-4.5,3.47,1.59,3.47,4.17C428.62,159.23,428.6,159.51,428.59,159.7Zm-1.43-1.19c0-1.64-.65-2.56-2-2.56-1.12,0-1.86.79-2,2.66h4Z" fill="#333"/><path d="M441.07,153.6h-4.28v3.6h3.72v1.22h-3.72v3.78h4.58v1.21h-6.1v-11h6Z" fill="#333"/><path d="M448,154.88l-.27,1.44a2.83,2.83,0,0,0-.74-.09c-1,0-1.66.75-2,2.36v4.82h-1.48V155h1.27l.14,1.71a2.42,2.42,0,0,1,2.26-1.91A3.77,3.77,0,0,1,448,154.88Z" fill="#333"/><path d="M455.85,151.58v11.83h-1.29l-.15-1.17A2.81,2.81,0,0,1,452,163.6c-2.05,0-3.19-1.74-3.19-4.37s1.25-4.45,3.32-4.45a3,3,0,0,1,2.27,1.05v-4.42Zm-1.47,9.61v-4.13a2.43,2.43,0,0,0-1.95-1.11c-1.27,0-2.05,1.06-2.05,3.25s.7,3.24,1.92,3.24A2.43,2.43,0,0,0,454.38,161.19Z" fill="#333"/><path d="M465.18,159.7H459.8c.15,2,1.06,2.7,2.27,2.7a3.57,3.57,0,0,0,2.2-.73l.64.88a4.63,4.63,0,0,1-3,1c-2.35,0-3.73-1.64-3.73-4.32s1.33-4.5,3.51-4.5,3.47,1.59,3.47,4.17C465.21,159.23,465.2,159.51,465.18,159.7Zm-1.43-1.19c0-1.64-.65-2.56-2-2.56-1.12,0-1.86.79-2,2.66h3.95Z" fill="#333"/><path d="M468.89,162.48a1.11,1.11,0,1,1-1.12-1.1A1.1,1.1,0,0,1,468.89,162.48Z" fill="#333"/><line x1="79.52" y1="318.84" x2="79.52" y2="278.17" fill="none" stroke="#333" stroke-linecap="round" stroke-miterlimit="10" stroke-width="4"/><path d="M87.65,282.84a1.95,1.95,0,0,1-3.32,1.38l-4.77-4.78-4.8,4.78a2,2,0,0,1-1.41.56,1.91,1.91,0,0,1-1.38-.62,2,2,0,0,1,.06-2.71l5.64-5.64a2.66,2.66,0,0,1,3.75,0l5.66,5.66A2,2,0,0,1,87.65,282.84Z" fill="#333"/><line x1="65.24" y1="289.11" x2="65.24" y2="304.77" fill="none" stroke="#333" stroke-linecap="round" stroke-miterlimit="10" stroke-width="2"/><line x1="73.07" y1="296.94" x2="57.41" y2="296.94" fill="none" stroke="#333" stroke-linecap="round" stroke-miterlimit="10" stroke-width="2"/><line x1="70.78" y1="302.48" x2="59.71" y2="291.4" fill="none" stroke="#333" stroke-linecap="round" stroke-miterlimit="10" stroke-width="2"/><line x1="70.78" y1="291.4" x2="59.71" y2="302.48" fill="none" stroke="#333" stroke-linecap="round" stroke-miterlimit="10" stroke-width="2"/><line x1="302.09" y1="324.38" x2="302.09" y2="283.71" fill="none" stroke="#333" stroke-linecap="round" stroke-miterlimit="10" stroke-width="4"/><path d="M310.21,288.38a1.94,1.94,0,0,1-3.31,1.37L302.12,285l-4.79,4.77a1.92,1.92,0,0,1-1.41.57,1.89,1.89,0,0,1-1.38-.62,2,2,0,0,1,.06-2.71l5.64-5.64a2.64,2.64,0,0,1,3.75,0l5.66,5.66A1.93,1.93,0,0,1,310.21,288.38Z" fill="#333"/><line x1="287.81" y1="294.65" x2="287.81" y2="310.3" fill="none" stroke="#333" stroke-linecap="round" stroke-miterlimit="10" stroke-width="2"/><line x1="295.64" y1="302.48" x2="279.98" y2="302.48" fill="none" stroke="#333" stroke-linecap="round" stroke-miterlimit="10" stroke-width="2"/><line x1="293.35" y1="308.01" x2="282.28" y2="296.94" fill="none" stroke="#333" stroke-linecap="round" stroke-miterlimit="10" stroke-width="2"/><line x1="293.35" y1="296.94" x2="282.28" y2="308.01" fill="none" stroke="#333" stroke-linecap="round" stroke-miterlimit="10" stroke-width="2"/><line x1="281.71" y1="265.67" x2="281.71" y2="225" fill="none" stroke="#333" stroke-linecap="round" stroke-miterlimit="10" stroke-width="4"/><path d="M289.84,229.67a1.95,1.95,0,0,1-3.32,1.37l-4.77-4.77L277,231a1.93,1.93,0,0,1-2.79,0,2,2,0,0,1,.06-2.71l5.64-5.64a2.64,2.64,0,0,1,3.75,0l5.66,5.66A1.94,1.94,0,0,1,289.84,229.67Z" fill="#333"/><line x1="267.43" y1="235.94" x2="267.43" y2="251.6" fill="none" stroke="#333" stroke-linecap="round" stroke-miterlimit="10" stroke-width="2"/><line x1="275.26" y1="243.77" x2="259.61" y2="243.77" fill="none" stroke="#333" stroke-linecap="round" stroke-miterlimit="10" stroke-width="2"/><line x1="272.97" y1="249.3" x2="261.9" y2="238.23" fill="none" stroke="#333" stroke-linecap="round" stroke-miterlimit="10" stroke-width="2"/><line x1="272.97" y1="238.23" x2="261.9" y2="249.3" fill="none" stroke="#333" stroke-linecap="round" stroke-miterlimit="10" stroke-width="2"/><line x1="425.26" y1="302.71" x2="425.26" y2="262.04" fill="none" stroke="#333" stroke-linecap="round" stroke-miterlimit="10" stroke-width="4"/><path d="M433.38,266.72a1.94,1.94,0,0,1-3.31,1.37l-4.78-4.78-4.79,4.78a2,2,0,0,1-1.41.56,1.89,1.89,0,0,1-1.39-.62,2,2,0,0,1,.07-2.71l5.64-5.64a2.66,2.66,0,0,1,3.75,0l5.66,5.66A2,2,0,0,1,433.38,266.72Z" fill="#333"/><line x1="410.98" y1="272.98" x2="410.98" y2="288.64" fill="none" stroke="#333" stroke-linecap="round" stroke-miterlimit="10" stroke-width="2"/><line x1="418.81" y1="280.81" x2="403.15" y2="280.81" fill="none" stroke="#333" stroke-linecap="round" stroke-miterlimit="10" stroke-width="2"/><line x1="416.52" y1="286.35" x2="405.45" y2="275.27" fill="none" stroke="#333" stroke-linecap="round" stroke-miterlimit="10" stroke-width="2"/><line x1="416.52" y1="275.27" x2="405.45" y2="286.35" fill="none" stroke="#333" stroke-linecap="round" stroke-miterlimit="10" stroke-width="2"/><path d="M78.37,209.66s-1.86-43.56,31.17-67.24" fill="none" stroke="#fff" stroke-linecap="round" stroke-miterlimit="10" stroke-width="4"/><path d="M110.33,151.77a1.93,1.93,0,0,1-3-1.94l1.21-6.64L101.87,142a1.94,1.94,0,0,1-1.26-.84,1.88,1.88,0,0,1-.28-1.49,2,2,0,0,1,2.27-1.49l7.84,1.43a2.65,2.65,0,0,1,2.13,3.09l-1.43,7.87A1.94,1.94,0,0,1,110.33,151.77Z" fill="#fff"/><path d="M162.07,26.93h-5.86v4h5.12v2.76h-5.12v4.25h6.27v2.83h-10.2V24.12h10.2Z" fill="#fff"/><path d="M175.56,31.45v9.31h-3.79V32.09c0-1.34-.46-1.7-1.2-1.7S169,31,168.36,32v8.72h-3.8V28h3.29l.29,1.54A4.83,4.83,0,0,1,172,27.6C174.24,27.6,175.56,29,175.56,31.45Z" fill="#fff"/><path d="M186.33,40.16a6.32,6.32,0,0,1-3.45,1c-2.81,0-4.18-1.61-4.18-4.61V30.65h-1.8V28h1.8V25.25l3.79-.43V28h2.93L185,30.65h-2.52v5.86c0,1.22.41,1.66,1.2,1.66a2.68,2.68,0,0,0,1.37-.41Z" fill="#fff"/><path d="M196.77,29.17l-1.39,2.13a5.86,5.86,0,0,0-3.14-1c-1,0-1.54.38-1.54,1s.34,1,2.62,1.63c2.52.72,3.93,1.78,3.93,4.06,0,2.64-2.49,4.2-5.66,4.2a7.92,7.92,0,0,1-5.33-1.9l1.85-2.06a5.59,5.59,0,0,0,3.38,1.24c1.15,0,1.85-.43,1.85-1.2s-.38-1.13-2.69-1.77c-2.52-.72-3.77-2-3.77-4,0-2.18,2-3.89,5.21-3.89A7.4,7.4,0,0,1,196.77,29.17Z" fill="#fff"/><path d="M207.12,40.16a6.35,6.35,0,0,1-3.46,1c-2.81,0-4.18-1.61-4.18-4.61V30.65h-1.8V28h1.8V25.25l3.8-.43V28h2.92l-.4,2.64h-2.52v5.86c0,1.22.4,1.66,1.2,1.66a2.64,2.64,0,0,0,1.36-.41Z" fill="#fff"/><path d="M219,35.5h-7.88c.24,2.28,1.32,2.91,2.88,2.91a5.13,5.13,0,0,0,3.05-1.13l1.56,2.11a7.82,7.82,0,0,1-5,1.78c-4.24,0-6.4-2.74-6.4-6.72,0-3.82,2.08-6.85,5.95-6.85,3.65,0,5.88,2.4,5.88,6.53C219.07,34.54,219,35.12,219,35.5Zm-3.65-2.45c0-1.72-.55-2.93-2.07-2.93-1.27,0-2,.8-2.18,3.1h4.25Z" fill="#fff"/><path d="M232.22,31.45v9.31h-3.79V32.09c0-1.34-.48-1.7-1.2-1.7S225.67,31,225,32v8.74h-3.79V23l3.79-.39v6.82a4.63,4.63,0,0,1,3.67-1.78C230.88,27.6,232.22,29,232.22,31.45Z" fill="#fff"/><path d="M245.68,40.76H242.4l-.17-1.61a4.37,4.37,0,0,1-3.87,2c-2.37,0-3.55-1.54-3.55-4V28h3.79v8.67c0,1.29.44,1.68,1.23,1.68a2.49,2.49,0,0,0,2.06-1.49V28h3.79Z" fill="#fff"/><path d="M259.6,31.45v9.31h-3.79V32.09c0-1.34-.45-1.7-1.2-1.7s-1.56.6-2.21,1.65v8.72h-3.79V28h3.29l.29,1.54a4.81,4.81,0,0,1,3.89-1.95C258.28,27.6,259.6,29,259.6,31.45Z" fill="#fff"/><path d="M274.12,28.76a10,10,0,0,1-3.67.5c1.61.7,2.4,1.63,2.4,3.29,0,2.47-2,4.27-5.35,4.27a7.38,7.38,0,0,1-1.46-.14.8.8,0,0,0-.41.72c0,.38.17.77,1.39.77h1.92c3,0,4.87,1.56,4.87,3.69,0,2.62-2.3,4.23-6.67,4.23-4.82,0-6.1-1.59-6.1-4.11h3.41c0,1.11.48,1.59,2.79,1.59s2.76-.63,2.76-1.44-.56-1.25-1.83-1.25h-1.85c-2.78,0-3.91-1.15-3.91-2.52a3,3,0,0,1,1.51-2.45,3.76,3.76,0,0,1-2.28-3.65c0-2.88,2.26-4.66,5.6-4.66a10.07,10.07,0,0,0,6-1.65Zm-8.71,3.45c0,1.4.77,2.16,1.92,2.16s1.92-.74,1.92-2.2-.65-2.07-1.92-2.07A1.87,1.87,0,0,0,265.41,32.21Z" fill="#fff"/><path d="M288.26,40.76h-4.49L279.67,28h4.13l2.25,9.87L288.4,28h3.87Z" fill="#fff"/><path d="M305.18,34.4c0,4.08-2.35,6.77-6.24,6.77s-6.24-2.5-6.24-6.8c0-4.08,2.35-6.77,6.24-6.77S305.18,30.1,305.18,34.4Zm-8.55,0c0,2.84.77,4,2.31,4s2.3-1.22,2.3-4-.76-4-2.3-4S296.63,31.61,296.63,34.37Z" fill="#fff"/><path d="M318.4,31.45v9.31h-3.79V32.09c0-1.34-.45-1.7-1.2-1.7s-1.56.6-2.21,1.65v8.72h-3.79V28h3.29l.29,1.54a4.81,4.81,0,0,1,3.89-1.95C317.08,27.6,318.4,29,318.4,31.45Z" fill="#fff"/><path d="M332.42,34.4h-1.54v6.36H327V24.12h5.45c4.51,0,6.84,1.61,6.84,5.07,0,2.18-1,3.5-3.2,4.49l4.23,7.08h-4.44Zm-1.54-2.72h1.66c1.73,0,2.64-.74,2.64-2.49s-.94-2.31-2.88-2.31h-1.42Z" fill="#fff"/><path d="M352.46,35.5h-7.87c.24,2.28,1.32,2.91,2.88,2.91a5.18,5.18,0,0,0,3-1.13l1.56,2.11a7.86,7.86,0,0,1-5,1.78c-4.25,0-6.41-2.74-6.41-6.72,0-3.82,2.09-6.85,5.95-6.85,3.65,0,5.88,2.4,5.88,6.53A12.19,12.19,0,0,1,352.46,35.5Zm-3.65-2.45c0-1.72-.55-2.93-2.06-2.93-1.27,0-2,.8-2.19,3.1h4.25Z" fill="#fff"/><path d="M366.45,28.76a10,10,0,0,1-3.67.5c1.61.7,2.4,1.63,2.4,3.29,0,2.47-2,4.27-5.35,4.27a7.56,7.56,0,0,1-1.47-.14.81.81,0,0,0-.4.72c0,.38.16.77,1.39.77h1.92c3,0,4.87,1.56,4.87,3.69,0,2.62-2.3,4.23-6.67,4.23-4.83,0-6.1-1.59-6.1-4.11h3.41c0,1.11.48,1.59,2.78,1.59s2.76-.63,2.76-1.44-.55-1.25-1.82-1.25h-1.85c-2.78,0-3.91-1.15-3.91-2.52a3,3,0,0,1,1.51-2.45A3.76,3.76,0,0,1,354,32.26c0-2.88,2.26-4.66,5.59-4.66a10,10,0,0,0,6-1.65Zm-8.71,3.45c0,1.4.77,2.16,1.92,2.16s1.92-.74,1.92-2.2-.65-2.07-1.92-2.07A1.87,1.87,0,0,0,357.74,32.21Z" fill="#fff"/><path d="M378.76,35.5h-7.87c.24,2.28,1.32,2.91,2.88,2.91a5.16,5.16,0,0,0,3.05-1.13l1.56,2.11a7.82,7.82,0,0,1-5,1.78c-4.25,0-6.41-2.74-6.41-6.72,0-3.82,2.09-6.85,6-6.85,3.64,0,5.88,2.4,5.88,6.53A12.16,12.16,0,0,1,378.76,35.5Zm-3.64-2.45c0-1.72-.56-2.93-2.07-2.93-1.27,0-2,.8-2.18,3.1h4.25Z" fill="#fff"/><path d="M392,31.45v9.31H388.2V32.09c0-1.34-.46-1.7-1.2-1.7s-1.57.6-2.21,1.65v8.72H381V28h3.29l.29,1.54a4.83,4.83,0,0,1,3.89-1.95C390.67,27.6,392,29,392,31.45Z" fill="#fff"/></g></g></svg>